<svg width="91" height="25" viewBox="0 0 91 25" fill="none" xmlns="http://www.w3.org/2000/svg">
<path d="M9.15978 18.74C8.56778 17.316 7.96778 15.908 7.35978 14.516C6.76778 13.108 6.17578 11.692 5.58378 10.268C5.42378 9.9 5.23978 9.444 5.03178 8.9C4.82378 8.356 4.61578 7.756 4.40778 7.1C4.19978 6.444 3.99978 5.772 3.80778 5.084C3.83978 5.74 3.85578 6.364 3.85578 6.956C3.87178 7.532 3.87178 8.092 3.85578 8.636C3.85578 9.068 3.84778 9.54 3.83178 10.052C3.83178 10.564 3.82378 11.092 3.80778 11.636C3.79178 12.18 3.77578 12.732 3.75978 13.292C3.75978 13.836 3.75978 14.364 3.75978 14.876C3.74378 15.276 3.72778 15.668 3.71178 16.052C3.69578 16.436 3.67178 16.748 3.63978 16.988C3.92778 16.972 4.24778 16.956 4.59978 16.94C4.96778 16.924 5.25578 16.916 5.46378 16.916V18.5H0.279781V17.18C0.695781 17.164 1.02378 17.1 1.26378 16.988C1.50378 16.86 1.67978 16.644 1.79178 16.34C1.90378 16.036 1.95978 15.604 1.95978 15.044L2.22378 5.276C2.23978 4.876 2.24778 4.492 2.24778 4.124C2.26378 3.756 2.27978 3.452 2.29578 3.212C2.03978 3.228 1.73578 3.244 1.38378 3.26C1.03178 3.26 0.743781 3.268 0.519781 3.284V1.7H5.29578L9.08778 11.06C9.24778 11.476 9.41578 11.924 9.59178 12.404C9.78378 12.884 9.96778 13.356 10.1438 13.82C10.3198 14.284 10.4718 14.692 10.5998 15.044H10.6238C10.8318 14.532 11.0318 14.004 11.2238 13.46C11.4158 12.9 11.6078 12.38 11.7998 11.9C12.4398 10.204 13.0878 8.516 13.7438 6.836C14.4158 5.14 15.0878 3.428 15.7598 1.7H20.6318V3.02C20.2638 3.02 19.9438 3.076 19.6718 3.188C19.4158 3.3 19.2238 3.516 19.0958 3.836C18.9678 4.14 18.9118 4.62 18.9278 5.276L19.3838 15.044C19.4158 15.428 19.4158 15.796 19.3838 16.148C19.3678 16.5 19.3518 16.78 19.3358 16.988C19.6078 16.956 19.9198 16.94 20.2718 16.94C20.6398 16.924 20.9278 16.916 21.1358 16.916V18.5H14.8958V17.18C15.2958 17.164 15.6238 17.092 15.8798 16.964C16.1358 16.836 16.3198 16.612 16.4318 16.292C16.5438 15.956 16.5838 15.468 16.5518 14.828L16.2638 8.804C16.2638 8.596 16.2478 8.292 16.2158 7.892C16.1838 7.492 16.1598 7.06 16.1438 6.596C16.1278 6.132 16.1118 5.692 16.0958 5.276C16.0478 5.388 15.9918 5.5 15.9278 5.612C15.8798 5.724 15.8398 5.836 15.8078 5.948L10.8878 18.74H9.15978ZM24.754 25.004C24.178 25.004 23.69 24.844 23.29 24.524C22.89 24.204 22.69 23.764 22.69 23.204C22.69 22.82 22.818 22.476 23.074 22.172C23.33 21.884 23.658 21.732 24.058 21.716C24.41 21.7 24.69 21.812 24.898 22.052C25.122 22.308 25.234 22.612 25.234 22.964C25.234 23.012 25.234 23.06 25.234 23.108C25.234 23.172 25.226 23.236 25.21 23.3C25.242 23.3 25.298 23.3 25.378 23.3C25.538 23.268 25.706 23.148 25.882 22.94C26.074 22.748 26.25 22.484 26.41 22.148C26.602 21.78 26.802 21.324 27.01 20.78C27.218 20.252 27.418 19.66 27.61 19.004L23.842 11.252C23.41 10.356 23.114 9.668 22.954 9.188C22.81 8.708 22.706 8.308 22.642 7.988L21.538 8.036V6.5H27.178V7.772H27.13C26.522 7.82 26.186 8.052 26.122 8.468C26.058 8.868 26.162 9.364 26.434 9.956L28.954 15.548C29.178 14.924 29.426 14.156 29.698 13.244C29.986 12.332 30.306 11.372 30.658 10.364C30.738 10.108 30.834 9.828 30.946 9.524C31.074 9.204 31.202 8.9 31.33 8.612C31.458 8.324 31.586 8.108 31.714 7.964L30.25 8.036V6.5H34.354V7.772C33.826 7.916 33.402 8.244 33.082 8.756C32.778 9.252 32.49 9.876 32.218 10.628L29.218 19.124C28.754 20.436 28.322 21.524 27.922 22.388C27.522 23.268 27.074 23.924 26.578 24.356C26.098 24.788 25.49 25.004 24.754 25.004ZM43.2724 12.572C43.2724 11.884 43.1684 11.388 42.9604 11.084C42.7684 10.78 42.4804 10.596 42.0964 10.532C41.7284 10.468 41.2804 10.444 40.7524 10.46L39.7684 10.508V14.948C39.7684 15.38 39.7604 15.78 39.7444 16.148C39.7284 16.5 39.7044 16.78 39.6724 16.988L43.3444 16.964C43.9044 16.964 44.4164 16.86 44.8804 16.652C45.3444 16.428 45.7204 16.06 46.0084 15.548C46.2964 15.02 46.4404 14.308 46.4404 13.412H47.7604L47.6404 18.5H35.0644V17.18C35.5124 17.164 35.8564 17.092 36.0964 16.964C36.3364 16.82 36.5044 16.58 36.6004 16.244C36.6964 15.892 36.7444 15.412 36.7444 14.804V5.228C36.7444 4.828 36.7524 4.444 36.7684 4.076C36.8004 3.708 36.8244 3.42 36.8404 3.212C36.5684 3.228 36.2564 3.244 35.9044 3.26C35.5524 3.26 35.2724 3.268 35.0644 3.284V1.7H46.8964L47.0404 6.212H45.7204C45.7204 5.3 45.5684 4.62 45.2644 4.172C44.9764 3.708 44.6004 3.396 44.1364 3.236C43.6724 3.076 43.1924 3.004 42.6964 3.02L41.4484 3.044C41.0164 3.06 40.6804 3.132 40.4404 3.26C40.2004 3.388 40.0244 3.62 39.9124 3.956C39.8164 4.276 39.7684 4.756 39.7684 5.396V9.068L43.1284 9.092L43.0084 7.004H44.5924V12.572H43.2724ZM49.7072 18.5V17.228C50.1712 17.228 50.4992 17.132 50.6912 16.94C50.8832 16.732 51.0032 16.444 51.0512 16.076C51.0992 15.708 51.1232 15.292 51.1232 14.828V10.316C51.1232 10.028 51.1312 9.724 51.1472 9.404C51.1632 9.084 51.1872 8.756 51.2192 8.42C50.9632 8.436 50.6672 8.452 50.3312 8.468C50.0112 8.484 49.7472 8.5 49.5392 8.516V6.956C50.2592 6.956 50.8512 6.924 51.3152 6.86C51.7792 6.78 52.1392 6.684 52.3952 6.572C52.6512 6.46 52.8352 6.356 52.9472 6.26H53.9552C53.9872 6.436 54.0032 6.58 54.0032 6.692C54.0032 6.804 54.0112 6.924 54.0272 7.052C54.0432 7.164 54.0672 7.332 54.0992 7.556C54.4192 7.284 54.7872 7.044 55.2032 6.836C55.6352 6.612 56.0672 6.436 56.4992 6.308C56.9312 6.18 57.3312 6.116 57.6992 6.116C59.1392 6.116 60.1712 6.54 60.7952 7.388C61.4192 8.236 61.7312 9.588 61.7312 11.444V15.068C61.7312 15.324 61.7232 15.636 61.7072 16.004C61.7072 16.356 61.6832 16.7 61.6352 17.036C61.9072 17.004 62.1872 16.988 62.4752 16.988C62.7632 16.972 63.0032 16.964 63.1952 16.964V18.5H57.3632V17.228C57.8272 17.228 58.1552 17.132 58.3472 16.94C58.5552 16.732 58.6832 16.444 58.7312 16.076C58.7792 15.708 58.8032 15.292 58.8032 14.828L58.7792 11.42C58.7792 10.268 58.6032 9.412 58.2512 8.852C57.9152 8.276 57.3552 7.988 56.5712 7.988C56.1072 8.004 55.6512 8.116 55.2032 8.324C54.7552 8.532 54.3792 8.796 54.0752 9.116C54.0912 9.308 54.0992 9.508 54.0992 9.716C54.0992 9.924 54.0992 10.132 54.0992 10.34L54.0752 15.068C54.0752 15.324 54.0672 15.636 54.0512 16.004C54.0512 16.356 54.0272 16.7 53.9792 17.036C54.2352 17.004 54.5072 16.988 54.7952 16.988C55.0992 16.972 55.3472 16.964 55.5392 16.964V18.5H49.7072ZM69.5775 18.884C68.6175 18.884 67.7615 18.636 67.0095 18.14C66.2575 17.644 65.6655 16.94 65.2335 16.028C64.8175 15.116 64.6095 14.044 64.6095 12.812C64.6095 11.516 64.8655 10.364 65.3775 9.356C65.8895 8.348 66.5935 7.556 67.4895 6.98C68.4015 6.404 69.4495 6.116 70.6335 6.116C71.0975 6.116 71.5295 6.172 71.9295 6.284C72.3455 6.38 72.7055 6.492 73.0095 6.62V4.484C73.0095 4.244 73.0095 3.948 73.0095 3.596C73.0255 3.244 73.0495 2.892 73.0815 2.54C72.8255 2.556 72.5295 2.572 72.1935 2.588C71.8735 2.604 71.6015 2.62 71.3775 2.636V1.076C72.1135 1.076 72.7135 1.044 73.1775 0.98C73.6415 0.9 74.0015 0.803999 74.2575 0.691999C74.5295 0.579999 74.7215 0.475999 74.8335 0.379999H75.9375V15.068C75.9375 15.308 75.9295 15.612 75.9135 15.98C75.8975 16.332 75.8735 16.684 75.8415 17.036C76.1135 17.004 76.3935 16.988 76.6815 16.988C76.9855 16.972 77.2415 16.956 77.4495 16.94V18.5H73.2735C73.2415 18.308 73.2095 18.116 73.1775 17.924C73.1615 17.716 73.1375 17.524 73.1055 17.348C72.6095 17.876 72.0655 18.26 71.4735 18.5C70.8815 18.756 70.2495 18.884 69.5775 18.884ZM70.7055 17.036C71.1535 17.036 71.5855 16.916 72.0015 16.676C72.4175 16.42 72.7535 16.108 73.0095 15.74C72.9935 15.516 72.9855 15.292 72.9855 15.068C72.9855 14.828 72.9855 14.588 72.9855 14.348L73.0095 8.204C72.7695 8.012 72.4655 7.868 72.0975 7.772C71.7295 7.66 71.3535 7.604 70.9695 7.604C70.2175 7.62 69.6015 7.86 69.1215 8.324C68.6575 8.772 68.3135 9.364 68.0895 10.1C67.8815 10.836 67.7855 11.636 67.8015 12.5C67.8015 13.284 67.9055 14.02 68.1135 14.708C68.3215 15.396 68.6335 15.956 69.0495 16.388C69.4815 16.82 70.0335 17.036 70.7055 17.036ZM85.0018 18.884C83.8658 18.884 82.8338 18.636 81.9058 18.14C80.9778 17.628 80.2418 16.916 79.6978 16.004C79.1698 15.076 78.9058 13.996 78.9058 12.764C78.9058 11.468 79.1778 10.316 79.7218 9.308C80.2658 8.3 80.9938 7.516 81.9058 6.956C82.8338 6.396 83.8498 6.116 84.9538 6.116C86.0898 6.116 87.1138 6.372 88.0258 6.884C88.9378 7.396 89.6578 8.108 90.1858 9.02C90.7298 9.932 91.0018 11.012 91.0018 12.26C91.0018 13.572 90.7378 14.732 90.2098 15.74C89.6978 16.732 88.9858 17.508 88.0738 18.068C87.1778 18.612 86.1538 18.884 85.0018 18.884ZM85.1218 17.42C85.8418 17.42 86.3938 17.196 86.7778 16.748C87.1618 16.3 87.4258 15.732 87.5698 15.044C87.7298 14.34 87.8098 13.62 87.8098 12.884C87.8098 12.26 87.7538 11.628 87.6418 10.988C87.5458 10.348 87.3858 9.772 87.1618 9.26C86.9378 8.732 86.6418 8.316 86.2738 8.012C85.9058 7.692 85.4578 7.532 84.9298 7.532C84.2258 7.548 83.6658 7.78 83.2498 8.228C82.8338 8.676 82.5298 9.244 82.3378 9.932C82.1618 10.62 82.0738 11.348 82.0738 12.116C82.0738 12.98 82.1778 13.828 82.3858 14.66C82.5938 15.476 82.9218 16.148 83.3698 16.676C83.8178 17.188 84.4018 17.436 85.1218 17.42Z" fill="#E7E1EA"/>
</svg>
