<svg width="83" height="80" viewBox="0 0 83 80" fill="none" xmlns="http://www.w3.org/2000/svg">
<g clip-path="url(#clip0_2512_4180)">
<path d="M41.7204 83.4408C64.762 83.4408 83.4408 64.762 83.4408 41.7204C83.4408 18.6789 64.762 0 41.7204 0C18.6789 0 0 18.6789 0 41.7204C0 64.762 18.6789 83.4408 41.7204 83.4408Z" fill="#EFEAF1"/>
<path opacity="0.1" d="M68.5756 77.9802V77.9712C68.5756 77.9712 68.5756 77.9621 68.5756 77.9582C68.5807 77.9317 68.5866 77.9039 68.5904 77.8773C68.5943 77.8508 68.5995 77.8204 68.6014 77.7926C68.6014 77.781 68.6014 77.77 68.6065 77.7564C68.6117 77.7428 68.6065 77.7415 68.6065 77.7337C68.6065 77.715 68.6104 77.6962 68.6104 77.6794C68.6104 77.6626 68.6104 77.6412 68.6104 77.6225C68.6104 77.581 68.6143 77.5416 68.6143 77.5021V77.3999V77.0641L68.5227 44.964C68.5227 44.9245 68.5227 44.8831 68.5188 44.8436C68.5188 44.8146 68.5169 44.7857 68.513 44.757C68.5111 44.7229 68.5072 44.689 68.5014 44.6554C68.4976 44.6269 68.4937 44.5984 68.4879 44.5706C68.4821 44.5428 68.4782 44.5156 68.4724 44.4878C68.4666 44.46 68.4576 44.4179 68.4479 44.3817C68.4302 44.3099 68.4087 44.2391 68.3834 44.1695C68.3834 44.1695 68.3834 44.1656 68.3834 44.1637C68.3666 44.1204 68.3492 44.077 68.3305 44.0343C68.265 43.8809 68.1819 43.7357 68.0829 43.6015C68.0603 43.5692 68.0358 43.5368 68.01 43.5058C67.9542 43.4353 67.8936 43.3687 67.8288 43.3065C67.8081 43.2858 67.7875 43.2651 67.7643 43.2457C67.741 43.2263 67.7075 43.1933 67.6753 43.1687L67.6604 43.1577L67.5398 43.0658L64.4506 40.7271L64.3861 17.7696C64.3829 16.6644 63.9421 15.6057 63.1608 14.8265C62.3795 14.0472 61.3216 13.6112 60.2199 13.6143L14.7079 13.7437C13.607 13.7481 12.5529 14.1907 11.777 14.9742C11.0012 15.7576 10.5671 16.818 10.57 17.9223L10.6345 40.8785L7.55624 43.236L7.43628 43.3285C7.43109 43.3321 7.42614 43.3359 7.42145 43.3401C7.15766 43.5589 6.94562 43.8338 6.80063 44.1448C6.65564 44.4559 6.58132 44.7953 6.58304 45.1387L6.67462 77.4944V77.5772V77.6787C6.67445 77.7379 6.67725 77.7971 6.683 77.856C6.683 77.8702 6.683 77.8832 6.683 77.8968C6.683 77.9103 6.683 77.9168 6.683 77.9272V77.9446C6.683 77.9504 6.683 77.9563 6.683 77.9621C6.68687 77.997 6.69203 78.0333 6.69719 78.0688C6.69885 78.075 6.70015 78.0813 6.70106 78.0876C6.70106 78.1012 6.70751 78.1148 6.71009 78.1277C6.71267 78.1406 6.71589 78.1568 6.71912 78.1711C6.72234 78.1853 6.72234 78.1859 6.72363 78.1937C6.72492 78.2015 6.72363 78.2073 6.72879 78.2138C6.73782 78.2519 6.74814 78.2901 6.75846 78.3283L6.7662 78.3516C6.77071 78.3677 6.77587 78.3833 6.78168 78.3994C6.78748 78.4156 6.792 78.4344 6.79845 78.4505C6.81328 78.4907 6.82875 78.5321 6.84359 78.5696V78.5741C6.85455 78.6 6.86809 78.6252 6.88035 78.6511C6.88551 78.6627 6.88938 78.675 6.89454 78.686C6.91002 78.7203 6.92872 78.754 6.94549 78.7882L6.95452 78.8025C6.95844 78.8098 6.96274 78.8169 6.96742 78.8238C6.97838 78.8439 6.98934 78.8639 7.00224 78.884C7.0074 78.8918 7.01385 78.8989 7.01901 78.9073C7.04094 78.9422 7.06287 78.9771 7.0835 79.0108C7.08802 79.0179 7.09189 79.0257 7.09705 79.0328C7.12091 79.0664 7.14671 79.0975 7.1725 79.1298L7.21055 79.1764C7.22925 79.1991 7.24796 79.2211 7.26666 79.2411C7.2744 79.2502 7.28407 79.2573 7.29181 79.2657C7.32857 79.3045 7.36663 79.342 7.40532 79.3789C7.41822 79.3899 7.43048 79.4016 7.44273 79.4132C7.45498 79.4248 7.47433 79.4423 7.4911 79.4559C7.55588 79.511 7.62371 79.5624 7.69425 79.6099C7.70586 79.6176 7.71811 79.6241 7.73036 79.6319C7.74262 79.6396 7.76519 79.6552 7.78325 79.6655L7.86774 79.7166C7.88708 79.727 7.90708 79.7354 7.92707 79.7451L7.99156 79.7774L8.05606 79.8078C8.09153 79.8234 8.12764 79.8363 8.16376 79.8499L8.18246 79.857C8.196 79.8622 8.2089 79.8693 8.22245 79.8738L8.27791 79.8913L8.30564 79.9003H8.3108C8.35788 79.9152 8.40496 79.9269 8.45204 79.9379C8.46427 79.9418 8.47678 79.9448 8.48945 79.9469L8.50815 79.9502L8.53524 79.9553C8.56426 79.9612 8.59328 79.9676 8.62359 79.9715H8.63004H8.65197H8.67777C8.69582 79.9747 8.71324 79.976 8.7313 79.978H8.75516C8.76139 79.9783 8.76763 79.9783 8.77386 79.978L8.86028 79.9838C8.90156 79.9838 8.94283 79.987 8.98411 79.987L66.1661 79.8234H66.2951C66.3364 79.8234 66.3783 79.8234 66.4196 79.8195L66.506 79.8137C66.515 79.8137 66.5228 79.8137 66.5305 79.8137L66.5718 79.8078C66.5789 79.8078 66.5866 79.8078 66.5944 79.8078L66.6408 79.802C66.6408 79.802 66.6447 79.802 66.6485 79.802L66.7066 79.7904C66.7221 79.7904 66.7388 79.7865 66.7537 79.7832H66.7627L66.8272 79.7684C66.8736 79.7567 66.9207 79.7457 66.9678 79.7302H66.9729L67.0058 79.7192C67.02 79.714 67.0348 79.7101 67.0484 79.705L67.0729 79.6972C67.0806 79.6972 67.0858 79.6914 67.0935 79.6894C67.1013 79.6875 67.1155 79.6784 67.1271 79.6739C67.2266 79.6358 67.3233 79.5908 67.4166 79.5394H67.4237C67.4386 79.5316 67.4541 79.5225 67.4689 79.5128C67.4833 79.5058 67.4971 79.4976 67.5102 79.4882C67.5269 79.4785 67.5437 79.4675 67.5605 79.4559C67.5681 79.4514 67.5754 79.4464 67.5824 79.441C67.5901 79.4358 67.5979 79.4307 67.605 79.4248C67.6321 79.4074 67.6572 79.3886 67.683 79.3705C67.6862 79.367 67.6899 79.3639 67.694 79.3614C67.7107 79.3485 67.7269 79.3343 67.7436 79.3207L67.7881 79.2838L67.8042 79.2709L67.8178 79.2592L67.861 79.2198C67.8736 79.2098 67.8854 79.199 67.8965 79.1874L67.9236 79.1596C67.9339 79.1499 67.9436 79.1389 67.9532 79.1292C67.9732 79.1091 67.9926 79.0891 68.0106 79.0684C68.0287 79.0477 68.048 79.0257 68.0667 79.0037L68.0983 78.9655C68.1261 78.9312 68.1525 78.8963 68.1796 78.8614C68.1886 78.8452 68.1996 78.8303 68.2106 78.8141L68.2299 78.7837C68.2454 78.7598 68.2621 78.7352 68.2763 78.71C68.2879 78.6951 68.295 78.6776 68.3047 78.6627C68.3144 78.6479 68.3234 78.6304 68.3324 78.6136C68.3415 78.5967 68.3512 78.578 68.3589 78.5625C68.3853 78.5133 68.4073 78.4609 68.4298 78.4098C68.4312 78.4046 68.4332 78.3996 68.4356 78.3949C68.4408 78.3774 68.4485 78.3606 68.4556 78.3419C68.4627 78.3231 68.4711 78.3024 68.4782 78.2817C68.4786 78.2808 68.4788 78.2798 68.4788 78.2788C68.4788 78.2778 68.4786 78.2768 68.4782 78.2759C68.4847 78.259 68.4892 78.2416 68.495 78.2241C68.5008 78.2066 68.5053 78.1924 68.5098 78.1762L68.5175 78.1529C68.5198 78.149 68.5211 78.1446 68.5214 78.14C68.5266 78.1174 68.5343 78.0928 68.5395 78.0682C68.5436 78.0553 68.5468 78.0421 68.5491 78.0287C68.5514 78.0214 68.5527 78.0138 68.553 78.0061C68.5711 77.997 68.5737 77.9886 68.5756 77.9802Z" fill="#232323"/>
<path d="M71.1698 42.0568L71.2627 74.5981C71.2627 74.6376 71.2627 74.6771 71.2627 74.7185C71.2627 74.7372 71.2627 74.756 71.2588 74.7754C71.255 74.7948 71.2588 74.811 71.2549 74.8297C71.2549 74.8375 71.2549 74.8446 71.2549 74.8524C71.2549 74.8601 71.2511 74.877 71.2491 74.888C71.2491 74.9164 71.242 74.9449 71.2382 74.9734C71.2343 75.0018 71.2291 75.0277 71.2233 75.0542C71.221 75.0676 71.2178 75.0808 71.2137 75.0937C71.2142 75.1041 71.2124 75.1145 71.2085 75.1241C71.2062 75.1375 71.203 75.1506 71.1988 75.1636C71.1937 75.1881 71.1859 75.2127 71.1808 75.2354C71.1804 75.2399 71.1791 75.2443 71.1769 75.2483C71.164 75.2904 71.1524 75.3318 71.1376 75.3712C71.138 75.3721 71.1382 75.3731 71.1382 75.3741C71.1382 75.3751 71.138 75.3761 71.1376 75.3771C71.1305 75.3978 71.1227 75.4185 71.1156 75.4372C71.1086 75.456 71.1008 75.4728 71.095 75.4903C71.0925 75.495 71.0905 75.5 71.0892 75.5051C71.0666 75.5563 71.0447 75.6087 71.0183 75.6578C71.0112 75.6734 71.0015 75.6921 70.9925 75.7089L70.9641 75.7581C70.9551 75.773 70.9473 75.7905 70.9364 75.8053C70.9177 75.8377 70.897 75.87 70.8764 75.8998C70.8628 75.9205 70.8499 75.9373 70.839 75.9567C70.8067 75.9981 70.7745 76.0395 70.7435 76.079C70.7126 76.1185 70.6945 76.1379 70.67 76.1644C70.6455 76.1909 70.6197 76.2194 70.5933 76.2453C70.5814 76.2586 70.569 76.2714 70.5558 76.2834C70.545 76.295 70.5331 76.3056 70.5204 76.3151C70.5075 76.3287 70.492 76.3416 70.4772 76.3552L70.4643 76.3662C70.4288 76.3986 70.3907 76.4309 70.3533 76.4575C70.3494 76.4601 70.3457 76.4631 70.3424 76.4665C70.3121 76.4879 70.2824 76.5105 70.2501 76.5312L70.2205 76.5519C70.2037 76.5635 70.1863 76.5745 70.1695 76.5842C70.1563 76.5933 70.1425 76.6016 70.1283 76.6088C70.1137 76.6185 70.0987 76.6274 70.0831 76.6354C69.9779 76.6963 69.8674 76.7476 69.7529 76.7887C69.7458 76.7887 69.74 76.7945 69.7323 76.7964L69.7078 76.8042C69.682 76.8139 69.6555 76.823 69.6271 76.8307C69.5801 76.8463 69.5336 76.8573 69.4866 76.8689L69.413 76.8864C69.3982 76.8864 69.3814 76.8915 69.3666 76.8935L69.3079 76.9051C69.304 76.9051 69.3021 76.9051 69.3008 76.9051L69.2537 76.911C69.246 76.911 69.2383 76.911 69.2312 76.911L69.1899 76.9168C69.1821 76.9168 69.1744 76.9168 69.1654 76.9168L69.079 76.9226C69.0377 76.9226 68.9964 76.9265 68.9551 76.9265L11.6448 77.0908C11.6035 77.0908 11.5622 77.0908 11.5209 77.0869L11.4345 77.0818C11.4023 77.08 11.3702 77.0763 11.3384 77.0708C11.3197 77.0708 11.301 77.0669 11.2842 77.0636C11.2391 77.0578 11.194 77.0488 11.1507 77.0391C11.1379 77.037 11.1251 77.0339 11.1127 77.03C11.0656 77.019 11.0192 77.0074 10.9721 76.9925L10.8908 76.9666C10.7653 76.9229 10.6433 76.8697 10.5258 76.8074L10.4413 76.7563C10.4091 76.7376 10.3768 76.7175 10.3472 76.6968C10.1613 76.5705 9.99444 76.418 9.85186 76.244C9.81768 76.2045 9.78737 76.1631 9.75512 76.1204C9.65137 75.9766 9.56479 75.8212 9.49715 75.6572C9.48231 75.6197 9.46684 75.5783 9.452 75.5381C9.43717 75.498 9.42556 75.4573 9.41202 75.4159C9.39847 75.3745 9.38944 75.3331 9.37977 75.2917C9.3701 75.2502 9.36236 75.2147 9.35526 75.1752C9.35526 75.1694 9.35526 75.1616 9.35139 75.1558C9.34559 75.1183 9.33979 75.0788 9.33592 75.0413C9.33478 75.0382 9.33478 75.0347 9.33592 75.0316C9.33205 75.0018 9.33011 74.9734 9.32818 74.9429C9.32237 74.8847 9.32044 74.8265 9.31979 74.7657L9.22757 42.2243C9.22585 41.881 9.30017 41.5415 9.44516 41.2305C9.59015 40.9195 9.8022 40.6446 10.066 40.4258C10.0708 40.4215 10.076 40.4176 10.0815 40.4142L10.2014 40.3217C10.5917 40.0413 11.0596 39.8905 11.5396 39.8902L68.85 39.7258C68.9061 39.7258 68.9609 39.7258 69.0151 39.7329C69.0251 39.731 69.0354 39.731 69.0454 39.7329C69.0977 39.7368 69.1525 39.742 69.2034 39.7491L69.2389 39.7549C69.284 39.7627 69.3292 39.7718 69.3724 39.7828C69.3838 39.7844 69.395 39.787 69.4059 39.7905C69.4608 39.8035 69.5136 39.8183 69.5659 39.8352C69.6181 39.852 69.6658 39.8688 69.7129 39.8876C69.7805 39.9142 69.8464 39.9449 69.9103 39.9794C69.9465 39.9963 69.9818 40.0151 70.016 40.0357C70.0761 40.0693 70.1339 40.1069 70.1889 40.1483L70.3095 40.2402C70.3147 40.2434 70.3197 40.2471 70.3243 40.2511C70.3566 40.2757 70.3849 40.3023 70.4133 40.3281C70.4417 40.354 70.4565 40.3676 70.4778 40.3883C70.5425 40.4509 70.603 40.5177 70.659 40.5882C70.6855 40.6199 70.71 40.6529 70.7326 40.684C70.8313 40.8181 70.9142 40.9634 70.9796 41.1168C70.9989 41.1582 71.0157 41.2015 71.0324 41.2462C71.0324 41.2462 71.0324 41.25 71.0324 41.252C71.0577 41.3215 71.0793 41.3923 71.0969 41.4642C71.1066 41.5004 71.1144 41.534 71.1221 41.5703C71.1298 41.6065 71.1331 41.6246 71.1369 41.6531C71.1408 41.6815 71.1466 41.7094 71.1505 41.7378C71.1562 41.7714 71.1601 41.8054 71.1621 41.8394C71.1659 41.8681 71.1679 41.8971 71.1679 41.9261C71.1679 41.9753 71.1698 42.0167 71.1698 42.0568Z" fill="#F9C067"/>
<path d="M71.0288 41.2615L9.35547 41.4374C9.4965 41.0461 9.73946 40.6999 10.0591 40.4347C10.0639 40.4303 10.0691 40.4264 10.0746 40.423L10.1945 40.3305L38.7056 18.4909C39.1135 18.178 39.6125 18.0078 40.126 18.0064C40.6396 18.005 41.1394 18.1724 41.5491 18.4831L70.1839 40.1558L70.3045 40.2477C70.3098 40.2509 70.3147 40.2546 70.3194 40.2587C70.3516 40.2833 70.38 40.3098 70.4084 40.3357C70.4367 40.3616 70.4516 40.3751 70.4729 40.3958C70.5375 40.4584 70.5981 40.5252 70.6541 40.5957C70.6805 40.6274 70.705 40.6604 70.7276 40.6915C70.8264 40.8257 70.9093 40.9709 70.9746 41.1243C70.994 41.1657 71.0107 41.209 71.0275 41.2537C71.0269 41.2576 71.0288 41.2595 71.0288 41.2615Z" fill="#A36017"/>
<path d="M67.167 63.8497L13.3464 64.0036L13.207 15.0169C13.2055 14.4696 13.3115 13.9274 13.5189 13.4212C13.7262 12.9149 14.031 12.4546 14.4157 12.0666C14.8004 11.6785 15.2576 11.3702 15.761 11.1594C16.2645 10.9485 16.8045 10.8392 17.3501 10.8377L62.8615 10.7083C63.407 10.7067 63.9476 10.8129 64.4522 11.0208C64.9568 11.2288 65.4157 11.5344 65.8026 11.9203C66.1895 12.3061 66.4968 12.7647 66.707 13.2697C66.9172 13.7747 67.0262 14.3163 67.0277 14.8636L67.167 63.8497Z" fill="white"/>
<path d="M59.9195 26.2538L20.3726 26.3646C19.8163 26.3662 19.3665 26.8199 19.368 27.378L19.3692 27.8075C19.3708 28.3656 19.8231 28.8168 20.3794 28.8152L59.9264 28.7044C60.4827 28.7029 60.9325 28.2492 60.9309 27.6911L60.9297 27.2615C60.9282 26.7034 60.4759 26.2523 59.9195 26.2538Z" fill="#E4ECF9"/>
<path d="M59.9342 31.4889L20.3873 31.5997C19.8309 31.6013 19.3811 32.055 19.3827 32.6131L19.3839 33.0426C19.3854 33.6007 19.8377 34.0519 20.3941 34.0503L59.941 33.9396C60.4974 33.938 60.9471 33.4843 60.9456 32.9262L60.9444 32.4966C60.9428 31.9385 60.4905 31.4874 59.9342 31.4889Z" fill="#E4ECF9"/>
<path d="M59.9607 39.1694L20.4136 39.2826C20.1472 39.2816 19.892 39.1751 19.7033 38.9864C19.5147 38.7977 19.4079 38.5419 19.4062 38.2747V37.8451C19.4064 37.5773 19.5122 37.3205 19.7004 37.1307C19.8887 36.9409 20.1441 36.8335 20.4111 36.832L59.9581 36.7188C60.225 36.7189 60.4811 36.825 60.6703 37.0138C60.8595 37.2027 60.9665 37.4589 60.9681 37.7267V38.1563C60.9681 38.4245 60.862 38.6818 60.6732 38.8717C60.4843 39.0616 60.2281 39.1687 59.9607 39.1694Z" fill="#E4ECF9"/>
<path d="M59.9635 41.9596L20.4166 42.0704C19.8602 42.072 19.4104 42.5257 19.412 43.0838L19.4132 43.5133C19.4147 44.0714 19.867 44.5226 20.4234 44.521L59.9703 44.4103C60.5267 44.4087 60.9764 43.955 60.9749 43.3969L60.9737 42.9673C60.9721 42.4092 60.5198 41.9581 59.9635 41.9596Z" fill="#E4ECF9"/>
<path d="M59.9893 49.6401L20.4422 49.7533C20.1753 49.7531 19.9192 49.6471 19.7299 49.4583C19.5406 49.2694 19.4333 49.0132 19.4316 48.7454V48.3158C19.432 48.0482 19.5379 47.7916 19.7264 47.6021C19.9148 47.4126 20.1703 47.3056 20.4371 47.3046L59.9842 47.1914C60.2511 47.1912 60.5072 47.2971 60.6965 47.4859C60.8857 47.6747 60.9928 47.931 60.9941 48.1987V48.6283C60.9936 48.8958 60.8877 49.1523 60.6995 49.3418C60.5113 49.5313 60.256 49.6386 59.9893 49.6401Z" fill="#E4ECF9"/>
<path d="M37.603 19.3211L20.3557 19.3709C20.0887 19.3707 19.8327 19.2646 19.6435 19.0758C19.4543 18.887 19.3472 18.6307 19.3457 18.363V17.9334C19.3457 17.6657 19.4513 17.4089 19.6395 17.219C19.8276 17.0292 20.083 16.9218 20.3499 16.9203L37.5972 16.8711C37.8641 16.8709 38.1202 16.9768 38.3095 17.1656C38.4988 17.3544 38.6058 17.6107 38.6072 17.8784V18.308C38.6073 18.5757 38.5018 18.8326 38.3136 19.0225C38.1254 19.2123 37.8699 19.3197 37.603 19.3211Z" fill="#67508E"/>
<path d="M40.2454 59.2881C40.1517 59.3906 40.0445 59.4799 39.9268 59.5534L11.7672 77.0947H11.6382C11.4104 77.096 11.1836 77.0628 10.9656 76.9963L10.8772 76.9685C10.5096 76.8423 10.1798 76.6246 9.91886 76.3358C9.89435 76.3099 9.86985 76.2815 9.84534 76.251C9.77395 76.1654 9.70926 76.0743 9.65186 75.9787C9.63122 75.9463 9.61445 75.914 9.59511 75.8823C9.57576 75.8506 9.55964 75.8176 9.54416 75.7807C9.39225 75.4665 9.31289 75.122 9.31198 74.7728L9.21976 42.2314C9.21804 41.888 9.29236 41.5486 9.43735 41.2376C9.58234 40.9265 9.79438 40.6517 10.0582 40.4329C10.063 40.4285 10.0681 40.4246 10.0736 40.4212L10.1936 40.3287C10.5839 40.0484 11.0518 39.8975 11.5318 39.8972H12.062L14.543 41.4227L37.4154 55.4899L38.2758 56.0191L39.9171 57.0283C40.0361 57.1008 40.1446 57.1894 40.2396 57.2916C40.4871 57.5645 40.6247 57.9199 40.6258 58.2888C40.6269 58.6577 40.4913 59.0138 40.2454 59.2881Z" fill="#F4B545"/>
<path d="M71.1705 42.0568L71.2633 74.5981C71.2633 74.6376 71.2633 74.6771 71.2633 74.7185C71.2633 74.7372 71.2633 74.756 71.2595 74.7754C71.2556 74.7948 71.2595 74.811 71.2556 74.8297C71.2556 74.8375 71.2556 74.8446 71.2556 74.8524C71.2556 74.8601 71.2517 74.877 71.2498 74.888C71.2498 74.9164 71.2427 74.9449 71.2388 74.9734C71.235 75.0018 71.2298 75.0277 71.224 75.0542C71.224 75.0581 71.224 75.0639 71.224 75.0672C71.2221 75.0762 71.2196 75.0851 71.2163 75.0937C71.2168 75.1041 71.215 75.1145 71.2111 75.1241C71.2088 75.1375 71.2056 75.1507 71.2014 75.1636C71.1963 75.1881 71.1905 75.2108 71.1834 75.2354C71.183 75.2399 71.1817 75.2443 71.1795 75.2483C71.1685 75.2897 71.155 75.3318 71.1402 75.3712C71.1406 75.3721 71.1408 75.3731 71.1408 75.3741C71.1408 75.3751 71.1406 75.3761 71.1402 75.3771C71.1331 75.3978 71.1273 75.4165 71.1182 75.4372C71.1092 75.4579 71.1047 75.4709 71.0976 75.4903C71.0952 75.4951 71.0933 75.5 71.0918 75.5052C71.0692 75.5563 71.0473 75.6087 71.0208 75.6578C71.0137 75.6734 71.0041 75.6921 70.9951 75.7089L70.9667 75.7581C70.9576 75.773 70.9499 75.7905 70.9389 75.8053C70.9202 75.8377 70.8996 75.87 70.879 75.8998C70.8654 75.9205 70.8525 75.9373 70.8416 75.9567C70.8093 76.0001 70.7771 76.0395 70.7461 76.079C70.7152 76.1185 70.6971 76.1379 70.6726 76.1644C70.6481 76.1909 70.6223 76.2194 70.5958 76.2453C70.584 76.2586 70.5716 76.2714 70.5584 76.2834C70.5475 76.295 70.5357 76.3056 70.523 76.3151C70.5101 76.3287 70.4946 76.3417 70.4798 76.3552L70.4669 76.3662C70.4314 76.3986 70.3933 76.4309 70.3559 76.4575C70.3519 76.4601 70.3483 76.4631 70.345 76.4665C70.3146 76.4879 70.285 76.5105 70.2527 76.5312L70.2231 76.5519C70.2063 76.5636 70.1889 76.5746 70.1721 76.5843C70.1589 76.5933 70.1451 76.6016 70.1308 76.6088C70.1163 76.6185 70.1012 76.6274 70.0857 76.6354C69.9804 76.6963 69.8699 76.7477 69.7555 76.7887C69.7484 76.7887 69.7407 76.7945 69.7349 76.7965L69.7104 76.8042C69.6846 76.8139 69.6581 76.823 69.6297 76.8307C69.5827 76.8463 69.5362 76.8573 69.4891 76.8689L69.4156 76.8864C69.4008 76.8864 69.384 76.8916 69.3692 76.8935L69.3105 76.9051H69.3047C69.2879 76.9051 69.2712 76.911 69.2563 76.9129C69.2415 76.9148 69.2408 76.9129 69.2337 76.9129L69.1925 76.9187C69.1847 76.9187 69.177 76.9187 69.168 76.9187L69.0815 76.9245C69.0403 76.9245 68.999 76.9284 68.9577 76.9284H68.8287L40.5705 59.5495C40.4526 59.4774 40.3455 59.3887 40.2526 59.2862C40.0056 59.0135 39.8683 58.6585 39.8672 58.2901C39.8661 57.9216 40.0014 57.5659 40.2468 57.2917C40.3394 57.1888 40.446 57.0995 40.5634 57.0264L42.1977 56.0082L43.0548 55.4738L65.8408 41.2759L68.3134 39.7368H68.8436C68.8997 39.7368 68.9545 39.7368 69.0087 39.7439C69.0187 39.742 69.029 39.742 69.039 39.7439C69.0912 39.7478 69.146 39.753 69.197 39.7601L69.2325 39.7659C69.2776 39.7737 69.3227 39.7827 69.366 39.7937C69.3773 39.7954 69.3885 39.798 69.3995 39.8015C69.4543 39.8144 69.5072 39.8293 69.5594 39.8461C69.6117 39.863 69.6594 39.8798 69.7065 39.8986C69.774 39.9252 69.8399 39.9559 69.9038 39.9904C69.9401 40.0072 69.9754 40.026 70.0096 40.0467C70.0697 40.0803 70.1274 40.1179 70.1824 40.1593L70.303 40.2511C70.3083 40.2544 70.3132 40.2581 70.3179 40.2621C70.3501 40.2867 70.3785 40.3132 70.4069 40.3391C70.4353 40.365 70.4501 40.3786 70.4714 40.3993C70.5361 40.4619 70.5966 40.5287 70.6526 40.5992C70.679 40.6309 70.7035 40.6639 70.7261 40.6949C70.8249 40.8291 70.9078 40.9744 70.9731 41.1277C70.9925 41.1692 71.0092 41.2125 71.026 41.2571C71.026 41.2571 71.026 41.261 71.026 41.263C71.0513 41.3325 71.0728 41.4033 71.0905 41.4752C71.1002 41.5114 71.1079 41.545 71.1157 41.5813C71.1234 41.6175 71.1266 41.6356 71.1305 41.6641C71.1344 41.6925 71.1402 41.7204 71.144 41.7488C71.1498 41.7824 71.1537 41.8163 71.1556 41.8504C71.1595 41.8791 71.1614 41.9081 71.1614 41.9371C71.1685 41.9752 71.1705 42.0167 71.1705 42.0568Z" fill="#F4B545"/>
<path opacity="0.29" d="M71.2618 74.1561V74.4944C71.2657 75.8362 70.2299 76.9276 68.9485 76.9308L11.6381 77.0952C10.3566 77.0952 9.31635 76.0135 9.31055 74.6717V74.3334L38.7329 54.7956C39.176 54.4989 39.6964 54.3399 40.2291 54.3384C40.7619 54.3369 41.2832 54.493 41.7279 54.7872L71.2618 74.1561Z" fill="#474747"/>
<path d="M71.2615 74.2719V74.5954C71.2629 75.2126 71.0199 75.8052 70.586 76.2428C70.1522 76.6805 69.5628 76.9275 68.9475 76.9295L11.6371 77.0939C11.0216 77.0954 10.4306 76.8517 9.99415 76.4163C9.55769 75.9809 9.31145 75.3894 9.30957 74.772V74.4485L38.7338 55.7266C39.1814 55.4418 39.7001 55.2898 40.2302 55.2883C40.7602 55.2869 41.2798 55.4359 41.7289 55.7181L71.2615 74.2719Z" fill="#F9C067"/>
<path opacity="0.1" d="M70.9831 30.18C77.8993 28.5425 82.1827 21.5908 80.5503 14.653C78.918 7.71515 71.988 3.41836 65.0717 5.05584C58.1555 6.69331 53.8721 13.645 55.5045 20.5828C57.1369 27.5206 64.0669 31.8174 70.9831 30.18Z" fill="#232323"/>
<path d="M78.8106 24.7708C83.8355 19.7302 83.8355 11.5578 78.8106 6.51726C73.7858 1.47668 65.6388 1.47668 60.614 6.51726C55.5891 11.5578 55.5891 19.7302 60.614 24.7708C65.6388 29.8114 73.7858 29.8114 78.8106 24.7708Z" fill="#67508E"/>
<path d="M64.1797 15.9007L68.1313 19.8523L76.0345 11.3845" stroke="white" stroke-width="2.15054" stroke-linecap="round" stroke-linejoin="round"/>
</g>
<defs>
<clipPath id="clip0_2512_4180">
<rect width="82.5806" height="80" fill="white"/>
</clipPath>
</defs>
</svg>
