<svg width="22" height="16" viewBox="0 0 22 16" fill="none" xmlns="http://www.w3.org/2000/svg">
<path d="M21.8584 7.36687C19.532 2.46626 16.0154 0 11.3013 0C6.58474 0 3.07063 2.46626 0.744245 7.36932C0.650933 7.56691 0.602539 7.78271 0.602539 8.00123C0.602539 8.21974 0.650933 8.43554 0.744245 8.63313C3.07063 13.5337 6.58719 16 11.3013 16C16.0179 16 19.532 13.5337 21.8584 8.63068C22.0473 8.23313 22.0473 7.77178 21.8584 7.36687ZM11.3013 14.2331C7.34302 14.2331 4.44486 12.2258 2.40069 8C4.44486 3.77423 7.34302 1.76687 11.3013 1.76687C15.2596 1.76687 18.1578 3.77423 20.2019 8C18.1602 12.2258 15.262 14.2331 11.3013 14.2331ZM11.2031 3.68098C8.81787 3.68098 6.88413 5.61472 6.88413 8C6.88413 10.3853 8.81787 12.319 11.2031 12.319C13.5884 12.319 15.5222 10.3853 15.5222 8C15.5222 5.61472 13.5884 3.68098 11.2031 3.68098ZM11.2031 10.7485C9.68413 10.7485 8.45468 9.51902 8.45468 8C8.45468 6.48098 9.68413 5.25153 11.2031 5.25153C12.7222 5.25153 13.9516 6.48098 13.9516 8C13.9516 9.51902 12.7222 10.7485 11.2031 10.7485Z" fill="#434343"/>
</svg>
