<svg width="184" height="450" viewBox="0 0 184 450" fill="none" xmlns="http://www.w3.org/2000/svg">
<path d="M34.3375 441.145C33.4645 439.143 32.5915 437.142 31.7185 435.14C30.8455 433.139 29.9831 431.126 29.1314 429.104C28.8759 428.507 28.6097 427.858 28.3329 427.155C28.0561 426.453 27.7793 425.707 27.5025 424.92C27.2257 424.132 26.9595 423.333 26.704 422.524C26.704 423.078 26.704 423.61 26.704 424.121C26.704 424.632 26.704 425.122 26.704 425.59C26.6827 426.25 26.6614 427.028 26.6401 427.922C26.6188 428.795 26.5869 429.721 26.5443 430.701C26.523 431.68 26.5017 432.66 26.4804 433.639C26.4804 434.597 26.4698 435.523 26.4485 436.418C26.4485 436.929 26.4378 437.429 26.4165 437.919C26.3953 438.409 26.3633 438.835 26.3207 439.197C26.704 439.154 27.1086 439.133 27.5344 439.133C27.9816 439.111 28.3755 439.09 28.7162 439.069V440.825H22.2325V439.42C22.8287 439.399 23.2865 439.282 23.6059 439.069C23.9253 438.856 24.1382 438.536 24.2447 438.111C24.3724 437.685 24.4469 437.163 24.4682 436.546L24.9154 422.748C24.9367 422.279 24.958 421.811 24.9793 421.342C25.0006 420.874 25.0219 420.459 25.0431 420.097C24.6599 420.118 24.2553 420.139 23.8294 420.161C23.4036 420.161 23.031 420.171 22.7116 420.193V418.468H28.301L33.571 431.052C33.8265 431.627 34.082 432.244 34.3375 432.904C34.5931 433.543 34.8486 434.182 35.1041 434.821C35.3809 435.438 35.6258 436.024 35.8387 436.577H35.9026C36.1368 435.939 36.403 435.236 36.7011 434.469C36.9992 433.703 37.2547 433.022 37.4676 432.425C38.3832 430.126 39.3095 427.826 40.2463 425.526C41.2045 423.227 42.1414 420.874 43.057 418.468H48.6784V419.873C48.1673 419.873 47.7308 419.969 47.3688 420.161C47.0282 420.331 46.7726 420.65 46.6023 421.119C46.4533 421.587 46.4 422.258 46.4426 423.131L47.1453 436.897C47.1879 437.323 47.1985 437.738 47.1772 438.143C47.1772 438.547 47.1666 438.888 47.1453 439.165C47.5285 439.143 47.9331 439.133 48.359 439.133C48.8061 439.111 49.1894 439.09 49.5088 439.069V440.825H41.7794V439.42C42.3969 439.399 42.8654 439.271 43.1848 439.037C43.5255 438.803 43.749 438.441 43.8555 437.951C43.962 437.44 43.9939 436.78 43.9513 435.971L43.4403 426.676C43.419 426.357 43.3977 425.984 43.3764 425.558C43.3551 425.111 43.3232 424.653 43.2806 424.185C43.2593 423.695 43.238 423.227 43.2167 422.78C43.1528 422.929 43.089 423.088 43.0251 423.259C42.9612 423.408 42.8973 423.578 42.8334 423.77L35.9665 441.145H34.3375ZM58.0059 449.481C57.3033 449.481 56.6964 449.289 56.1854 448.906C55.6957 448.544 55.4508 448.012 55.4508 447.309C55.4508 446.862 55.5892 446.457 55.866 446.095C56.1641 445.733 56.5474 445.552 57.0158 445.552C57.5269 445.531 57.8888 445.691 58.1018 446.032C58.336 446.372 58.4531 446.724 58.4531 447.086C58.4531 447.149 58.4531 447.213 58.4531 447.277C58.4531 447.341 58.4425 447.416 58.4212 447.501C58.485 447.543 58.5809 447.554 58.7086 447.533C58.9428 447.511 59.1984 447.384 59.4752 447.149C59.752 446.915 60.0075 446.585 60.2417 446.159C60.4972 445.691 60.7847 445.041 61.1041 444.211C61.4235 443.381 61.7748 442.422 62.1581 441.336L57.1436 430.86C56.5687 429.668 56.1641 428.742 55.9299 428.082C55.7169 427.4 55.5785 426.868 55.5147 426.485L53.9816 426.548V424.856H61.0402V426.165H60.9763C60.1033 426.25 59.6242 426.58 59.539 427.155C59.4752 427.73 59.6774 428.518 60.1459 429.519L63.6592 437.248C64.0638 436.162 64.4684 434.981 64.8729 433.703C65.2988 432.425 65.7353 431.116 66.1825 429.774C66.3315 429.37 66.4806 428.944 66.6296 428.497C66.8 428.028 66.9703 427.602 67.1406 427.219C67.3323 426.836 67.5133 426.57 67.6836 426.421L65.6075 426.548V424.856H70.8456V426.165C70.1004 426.421 69.5148 426.889 69.0889 427.571C68.6844 428.252 68.2905 429.114 67.9072 430.158L63.9148 441.4C63.2973 443.168 62.7223 444.648 62.19 445.84C61.6577 447.054 61.0615 447.959 60.4014 448.555C59.7626 449.172 58.9641 449.481 58.0059 449.481ZM86.868 432.745C86.868 431.829 86.7296 431.169 86.4528 430.765C86.1973 430.36 85.8034 430.115 85.271 430.03C84.7387 429.923 84.0786 429.891 83.2908 429.934L81.4383 429.998V436.641C81.4383 437.216 81.4277 437.727 81.4064 438.174C81.4064 438.6 81.3851 438.952 81.3425 439.228L86.8361 439.165C87.6665 439.143 88.4118 438.994 89.0718 438.717C89.7319 438.419 90.2536 437.919 90.6369 437.216C91.0201 436.514 91.2118 435.555 91.2118 434.342H92.6171L92.4255 440.825H75.8169V439.42C76.5196 439.378 77.02 439.228 77.3181 438.973C77.6375 438.717 77.8398 438.334 77.925 437.823C78.0101 437.312 78.0527 436.663 78.0527 435.875V422.588C78.0527 422.12 78.0634 421.672 78.0847 421.247C78.1059 420.799 78.1272 420.416 78.1485 420.097C77.7866 420.118 77.3926 420.139 76.9668 420.161C76.5409 420.182 76.1576 420.203 75.8169 420.224V418.468H91.4034L91.5631 424.249H90.1578C90.1578 423.035 89.9555 422.109 89.5509 421.47C89.1677 420.831 88.6566 420.405 88.0178 420.193C87.4003 419.98 86.7296 419.884 86.0056 419.905L83.7699 419.969C83.1098 419.969 82.6094 420.086 82.2687 420.32C81.928 420.533 81.7045 420.895 81.598 421.406C81.4915 421.896 81.4383 422.567 81.4383 423.418V428.433H86.7083L86.5167 425.686H88.2733V432.745H86.868ZM99.1677 440.825V439.484C99.8065 439.484 100.254 439.335 100.509 439.037C100.765 438.739 100.914 438.324 100.956 437.791C101.02 437.259 101.052 436.641 101.052 435.939L101.084 429.295C101.084 428.955 101.084 428.593 101.084 428.209C101.105 427.805 101.148 427.411 101.212 427.028C100.829 427.049 100.435 427.07 100.03 427.091C99.6468 427.091 99.2848 427.102 98.9441 427.123V425.431C99.9023 425.431 100.648 425.388 101.18 425.303C101.734 425.196 102.149 425.079 102.426 424.952C102.724 424.824 102.947 424.685 103.096 424.536H104.246C104.267 424.728 104.278 424.909 104.278 425.079C104.299 425.25 104.31 425.431 104.31 425.622C104.331 425.814 104.353 426.059 104.374 426.357C104.842 425.974 105.353 425.633 105.907 425.335C106.461 425.037 107.035 424.802 107.632 424.632C108.249 424.44 108.835 424.345 109.388 424.345C111.283 424.345 112.646 424.92 113.477 426.069C114.328 427.219 114.754 429.018 114.754 431.467V436.865C114.754 437.248 114.744 437.642 114.722 438.047C114.701 438.43 114.669 438.824 114.626 439.228C114.967 439.207 115.308 439.197 115.648 439.197C116.01 439.175 116.341 439.154 116.639 439.133V440.825H109.516V439.484C110.155 439.484 110.602 439.335 110.858 439.037C111.113 438.739 111.262 438.324 111.305 437.791C111.369 437.259 111.401 436.641 111.401 435.939V431.467C111.379 429.785 111.102 428.518 110.57 427.666C110.059 426.815 109.229 426.399 108.079 426.421C107.397 426.421 106.727 426.591 106.067 426.932C105.407 427.272 104.853 427.688 104.406 428.177C104.406 428.39 104.406 428.625 104.406 428.88C104.406 429.114 104.406 429.359 104.406 429.615V436.865C104.406 437.248 104.395 437.642 104.374 438.047C104.353 438.43 104.321 438.824 104.278 439.228C104.619 439.207 104.959 439.197 105.3 439.197C105.662 439.175 105.992 439.154 106.29 439.133V440.825H99.1677ZM129.325 441.336C128.026 441.336 126.865 441.017 125.843 440.378C124.842 439.718 124.044 438.781 123.448 437.568C122.873 436.354 122.585 434.927 122.585 433.288C122.585 431.542 122.926 429.998 123.607 428.656C124.289 427.315 125.247 426.261 126.482 425.494C127.717 424.728 129.122 424.345 130.698 424.345C131.358 424.345 131.986 424.43 132.582 424.6C133.2 424.749 133.711 424.93 134.115 425.143V421.502C134.115 421.183 134.126 420.831 134.147 420.448C134.169 420.043 134.201 419.628 134.243 419.202C133.86 419.224 133.466 419.245 133.061 419.266C132.657 419.288 132.295 419.298 131.976 419.298V417.605C132.934 417.605 133.69 417.563 134.243 417.478C134.818 417.371 135.255 417.254 135.553 417.126C135.872 416.999 136.106 416.86 136.255 416.711H137.437V436.865C137.437 437.184 137.427 437.546 137.405 437.951C137.384 438.355 137.352 438.781 137.309 439.228C137.693 439.207 138.076 439.186 138.459 439.165C138.843 439.143 139.194 439.133 139.513 439.133V440.825H134.435C134.392 440.527 134.35 440.251 134.307 439.995C134.286 439.739 134.265 439.484 134.243 439.228C133.604 439.91 132.87 440.432 132.039 440.793C131.209 441.155 130.304 441.336 129.325 441.336ZM130.634 439.324C131.294 439.324 131.933 439.143 132.55 438.781C133.189 438.419 133.711 437.962 134.115 437.408C134.115 437.131 134.115 436.844 134.115 436.546C134.115 436.247 134.115 435.928 134.115 435.587V426.9C133.711 426.602 133.232 426.378 132.678 426.229C132.146 426.059 131.592 425.974 131.017 425.974C129.974 425.974 129.09 426.282 128.366 426.9C127.664 427.496 127.142 428.316 126.801 429.359C126.461 430.403 126.301 431.595 126.322 432.936C126.365 434.086 126.546 435.151 126.865 436.13C127.185 437.11 127.653 437.887 128.271 438.462C128.909 439.037 129.697 439.324 130.634 439.324ZM153.493 441.336C151.981 441.336 150.618 440.996 149.404 440.314C148.191 439.633 147.222 438.685 146.498 437.472C145.795 436.237 145.444 434.821 145.444 433.224C145.444 431.499 145.795 429.977 146.498 428.656C147.222 427.315 148.191 426.261 149.404 425.494C150.618 424.728 151.97 424.345 153.461 424.345C154.972 424.345 156.335 424.696 157.549 425.399C158.763 426.08 159.721 427.038 160.423 428.273C161.147 429.487 161.509 430.892 161.509 432.489C161.509 434.171 161.158 435.683 160.455 437.025C159.753 438.366 158.794 439.42 157.581 440.187C156.388 440.953 155.026 441.336 153.493 441.336ZM153.716 439.739C154.738 439.718 155.537 439.399 156.112 438.781C156.708 438.164 157.134 437.376 157.389 436.418C157.645 435.438 157.772 434.427 157.772 433.384C157.772 432.468 157.687 431.574 157.517 430.701C157.368 429.806 157.123 428.997 156.782 428.273C156.442 427.549 155.994 426.974 155.441 426.548C154.887 426.101 154.216 425.888 153.429 425.91C152.428 425.91 151.608 426.218 150.969 426.836C150.352 427.453 149.894 428.252 149.596 429.231C149.319 430.19 149.181 431.212 149.181 432.298C149.181 433.554 149.34 434.746 149.66 435.875C149.979 437.003 150.469 437.93 151.129 438.654C151.81 439.378 152.673 439.739 153.716 439.739Z" fill="white"/>
<path d="M32.9324 234.217C38.8427 234.217 37.7973 233.925 42.9529 233.674L43.6057 233.643C51.4844 233.264 58.9042 232.9 66.222 231.405C69.7407 230.688 73.3614 229.566 76.9004 228.485C78.1141 228.111 79.338 227.732 80.567 227.368C82.9383 226.057 85.4319 224.807 87.9154 223.603C96.5234 219.352 105.427 214.957 107.538 207.622C108.849 203.053 107.538 197.649 103.51 191.092C95.8604 178.594 92.2449 162.372 89.2311 146.826C89.2311 146.708 89.1852 146.59 89.1648 146.472C87.6349 147.277 86.0439 148.055 84.5089 148.823C77.2625 152.409 69.7662 156.164 64.4168 162.275C61.4829 165.662 59.1989 169.566 57.6803 173.789C57.7415 174.168 57.8027 174.558 57.8639 174.947C59.9037 187.563 62.2699 200.241 64.3709 211.428C64.4933 212.073 64.6514 212.801 64.8197 213.589C65.8753 218.476 67.4714 225.857 63.708 229.627C62.3362 231.005 60.944 231.615 59.6844 231.389C58.4249 231.164 57.4509 230.216 56.6706 228.546C55.8904 226.877 55.9771 223.424 56.0791 220.402C56.1507 219.138 56.1507 217.871 56.0791 216.606C55.7884 213.743 55.3192 210.859 54.8654 208.068C54.4115 205.276 53.9424 202.433 53.6466 199.539C52.4992 188.588 53.7945 180.11 56.0995 173.636C54.5696 163.847 54.233 157.495 59.8017 148.229C60.1383 147.666 60.4851 147.123 60.8216 146.59C61.097 146.16 61.3316 145.745 61.607 145.34C57.9455 144.316 54.7124 142.528 52.5808 140.044C48.5369 135.336 47.5578 128.954 46.8948 122.592C45.7046 123.404 44.3494 123.94 42.9274 124.16C42.0972 124.266 41.2539 124.175 40.4649 123.895C39.6758 123.615 38.9631 123.153 38.3837 122.546C35.9564 120.149 34.9875 117.967 35.4311 115.887C36.1043 112.706 40.0207 110.468 44.6919 108.506C44.4573 107.741 44.1832 106.989 43.8708 106.252C41.2956 100.218 38.2206 94.2149 35.2476 88.4113C33.5596 85.1126 31.8156 81.7012 30.1837 78.3358C26.2163 70.1402 22.6058 61.5245 19.1127 53.2008C17.6236 49.6511 16.0836 45.9836 14.5231 42.4031C14.0947 41.4094 13.6613 40.0366 13.2023 38.5819C12.0906 35.0424 10.5658 30.1967 8.31186 28.8496C7.60812 28.4244 4.05891 26.1911 3.13589 23.9885C1.45305 19.947 -1.92288 5.32295 1.4275 2.01909C2.02415 1.43515 3.09506 0.897306 4.8238 1.66565C4.96024 1.72617 5.07624 1.82519 5.15771 1.95067C5.23919 2.07616 5.28264 2.22271 5.28277 2.37252C5.16548 14.1538 15.5175 25.0744 24.6609 34.6992C27.1342 37.3064 29.4698 39.7651 31.4688 42.1162C40.0258 52.1815 47.2008 68.204 53.3967 91.0903C53.8149 92.627 54.1158 94.3327 54.4166 95.9718C54.9266 98.702 55.3957 101.494 56.4564 103.865C57.7087 103.314 58.9043 102.642 60.0261 101.857C66.3954 97.1243 67.8794 90.9674 69.45 84.4416C70.8779 78.5254 72.3517 72.4042 77.6093 67.1795C85.0597 59.7932 100.195 49.8201 109.66 59.3271C113.5 63.1841 115.269 68.8238 114.479 74.7963C113.678 80.9431 110.363 86.2651 105.616 89.026C103.035 90.5863 100.165 91.6024 97.1812 92.0123C91.2046 97.6007 84.7537 102.38 79.0014 105.438C76.9947 106.462 74.9006 107.304 72.7443 107.953C69.6234 110.422 66.4668 111.538 63.4938 111.17C62.4711 111.651 61.4858 112.21 60.5463 112.839C53.0347 117.895 52.8103 122.06 53.5803 125.466C54.3198 128.754 56.64 130.358 59.047 132.058C60.8879 133.344 62.7901 134.671 63.8915 136.766C65.4214 139.696 65.0032 142.067 63.917 144.316C70.1639 145.55 77.3237 144.623 81.7654 141.242C85.1055 138.717 86.8955 134.583 88.7874 130.245V130.204C91.3882 112.717 102.842 97.5956 113.234 83.873C114.166 82.6471 115.089 81.428 116.004 80.2157C123.694 69.9712 132.174 60.5206 140.374 51.3671C143.663 47.6995 147.06 43.9039 150.395 40.0981L150.604 39.8624C161.399 27.4768 167.917 20.0034 167.682 3.51991C167.68 3.33289 167.746 3.15147 167.867 3.00926C167.988 2.86705 168.156 2.77369 168.34 2.74645C168.524 2.7223 168.71 2.76547 168.864 2.86801C169.019 2.97056 169.131 3.12562 169.181 3.30478C169.507 4.23192 169.944 5.11597 170.482 5.93762L170.828 6.52669C171.624 4.32411 172.486 2.08055 174.036 0.267269C174.103 0.18727 174.185 0.122214 174.278 0.0763247C174.371 0.0304354 174.473 0.0047379 174.577 0.000908406C174.681 -0.00419669 174.786 0.0122557 174.884 0.0492502C174.983 0.0862446 175.072 0.143004 175.148 0.216047C177.32 2.31618 177.427 5.07708 177.157 7.74579C177.56 7.39747 177.983 7.07477 178.401 6.75206C179.04 6.28171 179.647 5.76831 180.217 5.21538C180.327 5.09993 180.47 5.02241 180.627 4.99389C180.784 4.96537 180.945 4.98732 181.089 5.05659C181.234 5.12368 181.354 5.23518 181.432 5.37507C181.509 5.51496 181.541 5.67604 181.522 5.83518C181.323 7.60749 180.344 9.45663 179.248 10.9267L179.916 10.8857C180.777 10.873 181.633 10.7561 182.466 10.5374C182.599 10.4942 182.741 10.488 182.878 10.5196C183.014 10.5512 183.14 10.6193 183.241 10.7167C183.341 10.8151 183.412 10.9395 183.446 11.076C183.48 11.2125 183.476 11.3558 183.434 11.4902C182.777 13.6876 181.094 15.0758 179.467 16.3615C177.937 17.5806 176.632 18.6562 176.239 20.2441H177.463C179.273 20.2441 181.14 20.2902 182.945 20.4285C183.094 20.4391 183.237 20.4932 183.355 20.5842C183.474 20.6753 183.564 20.7992 183.613 20.9408C183.661 21.0843 183.665 21.2389 183.625 21.3848C183.585 21.5308 183.503 21.6615 183.389 21.7603C181.012 23.84 178.197 25.4228 175.229 27.1029C171.374 29.2747 167.381 31.5183 164.449 34.9092C162.428 37.3681 160.555 39.9458 158.839 42.6285C157.468 44.6774 156.05 46.798 154.53 48.7496C152.378 51.5105 149.905 53.6823 147.519 55.7825C145.719 57.312 144.003 58.9381 142.378 60.6537C137.192 66.3241 133.709 73.5107 130.359 80.4616C127.595 86.1729 124.749 92.0789 120.935 97.1755C116.039 103.727 110.629 108.199 104.897 112.937C102.255 115.119 99.5219 117.378 96.8345 119.867C93.7492 122.72 91.9593 126.828 90.2357 130.798C89.6262 135.218 89.6434 139.701 90.2867 144.116L90.9649 143.742C92.0972 143.089 93.166 142.331 94.1572 141.478C94.1011 135.541 96.0134 123.074 100.241 119.452C100.719 119.005 101.3 118.684 101.932 118.518C102.564 118.353 103.227 118.348 103.862 118.505C106.702 119.242 107.513 121.122 107.696 122.572C108.38 128.063 101.465 137.093 95.7023 142.139C95.7023 142.354 95.7024 142.559 95.7483 142.759C96.1562 147.333 98.4255 152.491 100.623 157.485C101.919 160.43 103.173 163.212 104.015 165.896L105.657 170.9C111.215 187.758 116.462 203.683 114.667 221.8C117.676 222.543 119.308 223.609 119.645 225.053C119.935 226.298 119.237 227.578 117.513 228.967C116.738 229.586 115.402 229.842 113.714 229.894C113.255 233.192 112.735 236.353 112.138 239.395C117.238 237.772 123.117 238.791 128.365 239.703C130.231 240.025 132.001 240.333 133.653 240.512C140.405 241.245 143.123 241.152 143.266 241.152H143.592C143.795 241.152 143.989 241.233 144.133 241.377C144.276 241.522 144.357 241.717 144.357 241.921C144.357 242.125 144.276 242.32 144.133 242.464C143.989 242.608 143.795 242.689 143.592 242.689H143.271C143.133 242.689 140.328 242.781 133.49 242.039C131.787 241.854 129.997 241.526 128.105 241.219C122.74 240.287 116.682 239.237 111.786 241.152C111.334 243.338 110.841 245.472 110.307 247.555C109.114 252.222 107.248 257.067 105.412 261.749C102.5 269.243 99.4913 276.988 99.0272 284.523C98.8896 286.756 99.2618 288.856 99.6596 291.074C100.074 293.04 100.313 295.038 100.373 297.047C100.366 298.276 100.284 299.505 100.129 300.724C100.45 302.061 100.787 303.286 101.149 304.428C103.698 312.926 104.3 321.613 104.856 330.039C105.427 338.65 106.019 347.547 108.798 356.035C109.502 357.797 110.355 359.495 111.348 361.111C112.745 363.564 114.061 365.88 114.275 367.585C114.989 373.374 110.975 374.444 107.431 375.387C106.208 375.673 105.014 376.069 103.862 376.57C107.363 376.239 110.887 376.216 114.392 376.503C114.514 376.51 114.632 376.546 114.737 376.608C114.842 376.671 114.93 376.758 114.994 376.862C115.059 376.966 115.098 377.083 115.109 377.205C115.119 377.327 115.101 377.45 115.055 377.564C113.082 382.338 104.402 382.286 100.328 380.637L100.159 380.57C96.1103 378.957 95.4831 378.711 96.2276 375.597C96.5498 374.299 96.7849 372.982 96.9313 371.653C98.1654 360.384 94.1266 347.311 90.2663 335.546C88.8509 338.956 87.6351 342.447 86.6252 346C85.6053 349.75 85.7532 353.745 85.8858 357.607C86.0184 361.367 86.1509 365.255 85.2381 368.958C83.8613 374.593 80.7862 375.346 77.8132 376.099C76.4742 376.384 75.1769 376.84 73.9529 377.456L74.8045 377.369C78.0121 377.041 81.3319 376.703 84.7027 377.948C84.8269 377.987 84.939 378.057 85.0282 378.152C85.1175 378.247 85.181 378.364 85.2126 378.491C85.2404 378.614 85.2377 378.743 85.2048 378.865C85.1719 378.987 85.1099 379.1 85.0239 379.193C83.3717 380.955 80.6945 381.677 77.8387 381.677C73.958 381.677 69.7407 380.34 67.3235 378.46C67.172 378.342 67.0704 378.171 67.0392 377.981C67.008 377.791 67.0495 377.596 67.1552 377.436C69.9906 373.199 70.9595 368.728 71.9794 363.985C72.7188 360.578 73.4787 357.059 74.9677 353.392C78.2467 345.35 77.8948 337.764 77.5175 329.732C77.3135 325.337 77.1044 320.794 77.5175 316.061C78.0274 310.067 79.3176 304.464 80.5772 299.049C80.6894 298.568 80.8015 298.086 80.9086 297.605C80.465 294.885 80.0417 292.181 79.6185 289.502C78.3589 281.454 75.5388 273.879 72.8106 266.549C70.8014 261.15 68.731 255.566 67.2776 249.824C65.0083 240.809 69.1492 235.057 75.5338 230.554C72.5811 231.451 69.5724 232.327 66.6198 232.926C59.2102 234.463 51.7088 234.811 43.7688 235.195L43.1212 235.226C37.833 235.482 39.0824 235.784 33.0242 235.769L32.9324 234.217ZM71.959 379.146C75.5286 380.34 80.0825 380.617 82.7649 378.977C80.1794 378.353 77.5939 378.619 74.8861 378.89C73.9478 379.003 72.9789 379.09 71.959 379.146ZM91.0822 333.343C95.1618 345.693 99.7157 359.656 98.3847 371.811C98.2375 373.199 97.9955 374.575 97.6606 375.93C97.4056 377.021 97.3291 377.42 97.4923 377.615C97.8034 377.979 98.8844 378.409 100.674 379.121L100.843 379.187C104.412 380.617 110.669 380.463 112.959 377.917C109.068 377.707 105.004 377.656 101.138 378.532C100.986 378.568 100.825 378.555 100.68 378.496C100.535 378.436 100.411 378.332 100.328 378.199C100.241 378.067 100.198 377.911 100.203 377.753C100.209 377.596 100.263 377.443 100.358 377.318C101.959 375.197 104.53 374.511 106.988 373.855C110.491 372.923 113.255 372.185 112.704 367.708C112.531 366.31 111.23 364.02 109.971 361.808C108.91 359.938 107.809 358.007 107.299 356.45C104.458 347.778 103.862 338.778 103.285 330.075C102.735 321.762 102.163 313.172 99.6392 304.838C99.5933 304.694 99.5525 304.546 99.5066 304.397C99.1394 306.313 98.6907 308.249 98.247 310.165C97.8339 311.937 97.4464 313.617 97.1404 315.21C95.942 321.357 93.6166 327.084 91.3626 332.626L91.0822 333.343ZM68.7361 377.651C69.3187 378.024 69.9311 378.347 70.5668 378.619C70.5289 378.485 70.5283 378.342 70.5651 378.208C70.602 378.073 70.6749 377.952 70.7759 377.856C72.9789 375.72 75.3094 375.125 77.3696 374.608C80.363 373.845 82.5252 373.297 83.6828 368.589C84.5446 365.086 84.4171 361.475 84.2845 357.653C84.1468 353.678 84.004 349.565 85.08 345.596C86.2842 341.412 87.7437 337.306 89.4503 333.302C88.6446 330.849 87.8797 328.523 87.1861 326.274C84.7528 318.161 82.8417 309.899 81.4645 301.539C80.2803 306.358 79.4368 311.255 78.9402 316.194C78.5476 320.804 78.7515 325.316 78.9402 329.66C79.3176 337.856 79.6797 345.621 76.2732 353.976C74.83 357.515 74.0855 360.967 73.3665 364.307C72.3924 368.953 71.449 373.369 68.7565 377.651H68.7361ZM82.3569 297.641C83.8868 306.861 85.6971 316.26 88.6446 325.813C89.1545 327.524 89.7461 329.281 90.3428 331.11C92.4437 325.957 94.5448 320.63 95.6412 314.959C95.9573 313.341 96.3449 311.65 96.7631 309.837C97.4617 306.805 98.1807 303.69 98.5581 300.786C96.2466 290.716 95.3388 280.373 95.8604 270.052C96.5387 259.065 99.6188 244.994 110.455 240.061C111.108 236.819 111.679 233.443 112.174 229.904C110.884 229.868 109.461 229.76 107.957 229.638C106.835 229.54 105.866 229.458 105.238 229.458H103.846C95.1771 229.428 90.3835 229.417 87.2167 238.678C83.5808 249.328 84.2539 261.35 84.9067 272.998L85.0393 275.359C85.488 283.339 83.9837 290.618 82.3773 297.641H82.3569ZM81.1381 228.803C72.4995 233.597 66.1047 239.221 68.6749 249.43C70.0977 255.09 72.163 260.632 74.1569 265.995C76.9106 273.397 79.7663 281.045 81.0463 289.245C81.2707 290.68 81.4951 292.114 81.7246 293.558C82.974 287.693 83.8817 281.88 83.5349 275.461L83.4023 273.095C82.7751 261.872 82.0611 249.148 85.794 238.217C89.2974 227.896 95.0955 227.896 103.867 227.942H105.259C105.947 227.942 106.947 228.029 108.104 228.126C109.262 228.224 110.914 228.362 112.398 228.393C112.629 226.655 112.838 224.876 113.025 223.055C108.711 222.42 102.352 223.911 96.707 225.232C94.2745 225.801 91.9848 226.339 90.0776 226.646C87.0562 227.179 84.0707 227.899 81.1381 228.803ZM110.083 241.992C100.771 247.038 98.0379 259.972 97.4158 270.165C97.1554 274.741 97.2065 279.329 97.5688 283.898C98.1552 276.301 101.138 268.639 104.015 261.221C105.901 256.371 107.686 251.781 108.859 247.202C109.291 245.501 109.697 243.765 110.078 241.992H110.083ZM56.6604 176.996C55.0184 182.866 54.2382 190.227 55.1918 199.38C55.4875 202.213 55.9516 205.061 56.4003 207.817C56.8491 210.572 57.3285 213.543 57.6294 216.448C57.7066 217.782 57.7066 219.119 57.6294 220.453C57.5376 223.142 57.4254 226.487 58.0781 227.896C58.634 229.089 59.2663 229.755 59.97 229.878C60.6737 230.001 61.658 229.535 62.6473 228.541C65.8192 225.366 64.3301 218.476 63.3459 213.912C63.1725 213.113 63.0144 212.375 62.892 211.71C60.8828 201.05 58.6237 189.033 56.6604 176.996ZM114.535 223.373C114.351 225.079 114.158 226.749 113.943 228.383C115.137 228.331 116.121 228.167 116.58 227.799C117.748 226.856 118.319 226.021 118.181 225.432C118.008 224.684 116.661 223.931 114.535 223.373ZM90.5671 145.724C90.6181 145.991 90.664 146.262 90.7201 146.529C93.7186 161.936 97.2781 178.005 104.81 190.283C109.073 197.229 110.445 203.038 109.007 208.047C106.707 216.038 97.4974 220.586 88.6089 224.981L87.3493 225.606C88.1857 225.422 89.0271 225.263 89.8583 225.13C91.7094 224.833 93.9787 224.3 96.3755 223.737C102.123 222.39 108.589 220.873 113.204 221.529C114.928 203.791 109.741 188.055 104.254 171.402C103.704 169.743 103.154 168.073 102.607 166.393C101.761 163.786 100.567 161.035 99.2669 158.125C97.0894 153.177 94.8405 148.06 94.3153 143.353C93.5109 143.998 92.6585 144.58 91.7655 145.094L90.5671 145.724ZM63.1878 145.724C62.8563 146.288 62.4994 146.851 62.1373 147.415C61.7752 147.978 61.4693 148.47 61.1174 149.023C56.2933 157.05 56.0995 162.602 57.2316 170.798C58.7368 167.33 60.7609 164.114 63.2337 161.26C68.782 154.919 76.4109 151.118 83.795 147.43C85.4676 146.595 87.1811 145.745 88.8588 144.869C88.3474 141.59 88.1765 138.267 88.3488 134.952C86.921 137.862 85.2126 140.561 82.7139 142.451C77.7775 146.211 69.9498 147.195 63.1878 145.724ZM48.3533 121.578C49.0214 128.237 49.8322 134.466 53.7639 139.04C55.7578 141.36 58.8634 143.015 62.4331 143.942C63.4836 141.893 63.8865 139.931 62.5912 137.457C61.6631 135.695 59.9955 134.527 58.226 133.293C55.7833 131.587 53.0092 129.651 52.1372 125.778C50.5614 118.802 55.1 114.663 59.7456 111.538C60.2556 111.195 60.7655 110.883 61.2755 110.586C60.5469 110.307 59.8523 109.946 59.2051 109.51L59.0215 109.387C55.666 114.182 51.9434 118.792 48.3533 121.578ZM102.918 119.939C102.292 119.962 101.695 120.213 101.24 120.646C97.8492 123.535 95.8757 133.856 95.7023 140.11C101.026 135.111 106.733 127.12 106.187 122.772C106.008 121.332 105.126 120.431 103.489 120.006C103.308 119.96 103.121 119.938 102.933 119.939H102.918ZM169.212 6.6906C168.569 21.6118 161.767 29.413 151.802 40.8408L151.593 41.0815C148.253 44.913 144.846 48.7137 141.557 52.3864C133 61.9343 124.923 70.9546 117.268 81.1326C116.357 82.3483 115.434 83.5691 114.499 84.795C105.055 97.278 95.3709 110.084 91.5309 124.488C92.6389 122.347 94.0895 120.403 95.8247 118.735C98.5428 116.22 101.291 113.946 103.953 111.748C109.609 107.077 114.953 102.656 119.762 96.2535C123.479 91.2747 126.305 85.4353 129.033 79.7854C132.439 72.7372 135.963 65.4431 141.302 59.6139C142.963 57.8577 144.718 56.1939 146.56 54.63C148.895 52.581 151.313 50.4502 153.373 47.802C154.862 45.8965 156.264 43.8015 157.621 41.773C159.375 39.035 161.294 36.4075 163.368 33.9052C166.473 30.3196 170.584 27.9993 174.551 25.7608C176.752 24.5841 178.881 23.2756 180.926 21.8423C179.793 21.8013 178.651 21.7859 177.529 21.7706C176.826 21.7706 176.122 21.7706 175.428 21.7398C175.326 21.7371 175.226 21.7139 175.133 21.6717C175.04 21.6295 174.957 21.5691 174.888 21.494C174.818 21.4197 174.764 21.3319 174.729 21.2359C174.693 21.1399 174.678 21.0377 174.684 20.9356C174.806 18.2003 176.724 16.6432 178.595 15.1424C179.697 14.349 180.668 13.3862 181.471 12.2892C181.017 12.3405 180.553 12.3661 180.099 12.3917C179.269 12.4015 178.444 12.5151 177.641 12.7298C177.478 12.7847 177.301 12.7827 177.139 12.7241C176.977 12.6656 176.84 12.5538 176.749 12.4071C176.658 12.2593 176.618 12.0849 176.638 11.912C176.657 11.7391 176.734 11.5779 176.856 11.4543C177.856 10.4419 178.692 9.27879 179.334 8.00702C178.38 8.6649 177.533 9.46854 176.826 10.3889C176.729 10.533 176.587 10.6406 176.423 10.6945C176.258 10.7483 176.08 10.7453 175.918 10.686C175.752 10.6276 175.611 10.514 175.518 10.364C175.425 10.214 175.386 10.0366 175.408 9.86128L175.464 9.48224C175.836 6.77768 176.224 3.99116 174.725 1.93713C173.587 3.55065 172.873 5.52272 172.175 7.44869C172.027 7.8636 171.879 8.27338 171.726 8.68316C171.673 8.8302 171.577 8.95771 171.45 9.04908C171.324 9.14044 171.173 9.19143 171.017 9.19539C170.862 9.19948 170.71 9.1554 170.582 9.06919C170.453 8.98298 170.354 8.85888 170.298 8.7139C169.991 8.0149 169.635 7.33876 169.232 6.6906H169.212ZM45.1406 109.986C40.9998 111.738 37.4913 113.731 36.9508 116.195C36.6346 117.731 37.4607 119.478 39.5005 121.45C39.9176 121.895 40.4336 122.234 41.0062 122.439C41.5788 122.645 42.1917 122.711 42.7948 122.633C44.2412 122.383 45.6049 121.781 46.7673 120.881L46.7368 120.564C46.3594 116.999 45.9973 113.347 45.1406 109.986ZM46.5685 109.397C47.3699 112.808 47.9069 116.276 48.1748 119.77C51.3773 117.055 54.7634 112.768 57.8282 108.414C57.0245 107.658 56.337 106.786 55.7884 105.827C54.1413 106.524 52.3411 107.205 50.49 107.876C49.1896 108.383 47.8638 108.88 46.5685 109.397ZM59.9037 108.127L60.0567 108.229C61.0305 108.896 62.1313 109.353 63.2898 109.571C65.5341 108.607 67.8389 107.79 70.1895 107.128L72.0661 106.544C73.4563 105.386 74.7305 104.094 75.8703 102.687C79.751 97.949 80.0621 93.6463 79.1442 91.4181C78.9451 90.8288 78.5843 90.308 78.1035 89.9156C77.6226 89.5232 77.0412 89.2752 76.4262 89.2002C74.0243 88.9389 71.0921 91.0903 68.3791 95.0857C67.7315 96.0435 66.8493 97.4214 65.8294 99.0145C64.1567 101.678 62.122 104.9 59.9037 108.127ZM3.27359 2.79767C3.13837 2.79157 3.00335 2.81444 2.87762 2.86478C2.75188 2.91513 2.63829 2.99178 2.54433 3.08964C0.0659651 5.53809 2.78911 19.0404 4.58414 23.3687C5.09409 24.6493 7.25631 26.3704 9.13804 27.5075C11.8867 29.1723 13.4471 34.1255 14.6965 38.1106C15.1452 39.5244 15.5634 40.8613 15.9611 41.7782C17.491 45.3638 19.0209 49.0415 20.5507 52.5913C24.0337 60.8996 27.6391 69.4948 31.5861 77.6546C33.2077 81.0045 34.9518 84.4057 36.6346 87.6942C39.6178 93.5285 42.703 99.5523 45.3038 105.622C45.62 106.367 45.9004 107.125 46.1452 107.896C47.3946 107.384 48.695 106.923 49.9495 106.442C51.7445 105.771 53.4936 105.11 55.0796 104.444C53.9526 101.924 53.4375 99.0349 52.9378 96.1972C52.6369 94.5222 52.3564 92.9394 51.9536 91.454C45.8342 68.7879 38.7509 52.9652 30.3367 43.069C28.3734 40.7537 26.048 38.3104 23.5901 35.7185C14.4109 26.0272 3.99258 15.0604 3.8039 2.86426C3.63137 2.81583 3.45268 2.79339 3.27359 2.79767ZM57.201 105.197C57.6284 105.906 58.1423 106.558 58.7308 107.138C59.8578 105.494 60.9389 103.86 61.9333 102.323C61.6274 102.574 61.3112 102.836 60.9797 103.066C59.7951 103.903 58.529 104.617 57.201 105.197ZM76.0692 87.6225C76.263 87.6225 76.4364 87.6225 76.5791 87.6225C77.4692 87.7282 78.3123 88.0808 79.0139 88.6409C79.7156 89.2009 80.2481 89.9462 80.5517 90.7932C81.6787 93.5541 81.3472 98.3793 77.0381 103.64C76.569 104.214 76.0896 104.762 75.6102 105.274C76.5357 104.907 77.4413 104.492 78.3232 104.029C83.5298 101.258 89.3331 97.0424 94.8201 92.0789C92.3613 92.0607 89.9475 91.4141 87.8063 90.1998C85.6651 88.9855 83.867 87.2436 82.5813 85.1382C78.7822 78.8276 79.5522 68.9467 90.2306 62.1648C98.6499 56.8172 102.806 59.6037 104.535 61.7653C109.236 67.6149 107.227 81.8395 100.756 88.4677C100.246 88.9799 99.7361 89.4921 99.2261 90.0044C101.196 89.4821 103.084 88.6874 104.836 87.643C109.18 85.1228 112.21 80.2259 112.954 74.5453C113.668 69.0491 112.072 63.8808 108.568 60.3618C104.79 56.5713 99.6086 55.9156 93.1628 58.4153C88.4304 60.2542 83.0147 63.9166 78.6699 68.2245C73.7132 73.1418 72.2905 79.0427 70.9136 84.754C70.4134 87.0801 69.7973 89.3795 69.0676 91.6435C72.01 88.3038 74.5087 87.6225 76.0386 87.6225H76.0692ZM98.8793 60.6333C96.299 60.6333 93.4433 62.0009 91.0924 63.4915C81.286 69.7202 80.5058 78.679 83.9531 84.3699C86.2631 88.2013 90.8119 91.0288 96.605 90.491C97.6657 89.4921 98.7111 88.4421 99.731 87.4176C105.631 81.3682 107.625 67.9991 103.408 62.759C102.872 62.0702 102.181 61.5186 101.392 61.1492C100.604 60.7797 99.739 60.6029 98.8692 60.6333H98.8793Z" fill="white"/>
</svg>
