<svg width="18" height="18" viewBox="0 0 18 18" fill="none" xmlns="http://www.w3.org/2000/svg">
<path d="M9 0C7.21997 0 5.47991 0.527841 3.99987 1.51677C2.51983 2.50571 1.36628 3.91131 0.685088 5.55585C0.00389956 7.20038 -0.17433 9.00998 0.172936 10.7558C0.520203 12.5016 1.37737 14.1053 2.63604 15.364C3.89471 16.6226 5.49836 17.4798 7.24419 17.8271C8.99002 18.1743 10.7996 17.9961 12.4442 17.3149C14.0887 16.6337 15.4943 15.4802 16.4832 14.0001C17.4722 12.5201 18 10.78 18 9C17.9975 6.61382 17.0485 4.3261 15.3612 2.63882C13.6739 0.95154 11.3862 0.00251984 9 0ZM11.5546 12.6684C11.5778 12.721 11.5874 12.7787 11.5827 12.836C11.578 12.8934 11.5591 12.9486 11.5277 12.9968C11.4962 13.045 11.4532 13.0846 11.4027 13.112C11.3521 13.1394 11.2954 13.1538 11.2379 13.1538H6.76212C6.70457 13.1538 6.64794 13.1394 6.59735 13.112C6.54676 13.0846 6.50379 13.045 6.47235 12.9968C6.44091 12.9486 6.42198 12.8934 6.41727 12.836C6.41256 12.7787 6.42223 12.721 6.44539 12.6684L7.61539 10.0142C7.08746 9.70943 6.67485 9.23894 6.44157 8.67574C6.20828 8.11254 6.16735 7.48811 6.32513 6.89928C6.48291 6.31044 6.83057 5.79013 7.3142 5.41903C7.79783 5.04792 8.3904 4.84677 9 4.84677C9.6096 4.84677 10.2022 5.04792 10.6858 5.41903C11.1694 5.79013 11.5171 6.31044 11.6749 6.89928C11.8326 7.48811 11.7917 8.11254 11.5584 8.67574C11.3252 9.23894 10.9125 9.70943 10.3846 10.0142L11.5546 12.6684Z" fill="#67508E"/>
</svg>
