<svg width="18" height="18" viewBox="0 0 18 18" fill="none" xmlns="http://www.w3.org/2000/svg">
<path d="M12.6289 2.25C13.0242 2.24999 13.3657 2.24951 13.6465 2.27246C13.9429 2.29671 14.2379 2.35061 14.5215 2.49512C14.9439 2.71043 15.2888 3.05445 15.5049 3.47852C15.6493 3.762 15.7033 4.05653 15.7275 4.35254C15.7505 4.63318 15.75 4.97458 15.75 5.36914V12.6318C15.75 13.0263 15.7505 13.367 15.7275 13.6475C15.7033 13.9435 15.6493 14.238 15.5049 14.5215C15.289 14.9451 14.9443 15.2894 14.5215 15.5049C14.2379 15.6494 13.9426 15.7033 13.6465 15.7275C13.366 15.7505 13.0253 15.75 12.6309 15.75H9.11914C8.72457 15.75 8.38318 15.7505 8.10254 15.7275C7.80653 15.7033 7.512 15.6493 7.22852 15.5049C6.80456 15.2889 6.4605 14.9441 6.24512 14.5215C6.10059 14.2378 6.0467 13.9429 6.02246 13.6465C5.99951 13.3656 5.99999 13.0243 6 12.6289V12.5625C6 12.1483 6.33579 11.8125 6.75 11.8125C7.16421 11.8125 7.5 12.1483 7.5 12.5625V12.5996C7.5 13.032 7.50022 13.312 7.51758 13.5244C7.5342 13.7274 7.56313 13.8027 7.58203 13.8398C7.65422 13.9815 7.76885 14.0964 7.90918 14.168C7.94609 14.1868 8.0221 14.2158 8.22559 14.2324C8.4377 14.2497 8.71632 14.25 9.14746 14.25H12.6025C13.0339 14.25 13.3124 14.2497 13.5244 14.2324C13.7276 14.2158 13.8028 14.1868 13.8398 14.168C13.9812 14.096 14.0962 13.9813 14.168 13.8408C14.1868 13.8038 14.2158 13.7276 14.2324 13.5244C14.2497 13.3124 14.25 13.0338 14.25 12.6025V5.39746C14.25 4.96632 14.2497 4.6877 14.2324 4.47559C14.2158 4.2721 14.1868 4.19609 14.168 4.15918C14.0965 4.01901 13.9817 3.9043 13.8398 3.83203C13.8027 3.81311 13.7275 3.78421 13.5244 3.76758C13.3122 3.75023 13.0328 3.75 12.6006 3.75H9.15039C8.71798 3.75 8.43818 3.75022 8.22559 3.76758C8.02187 3.78424 7.9462 3.81317 7.90918 3.83203C7.76825 3.9039 7.6539 4.01825 7.58203 4.15918C7.56317 4.19621 7.53423 4.27188 7.51758 4.47559C7.50021 4.68818 7.5 4.96798 7.5 5.40039V5.43653C7.49996 5.8507 7.16419 6.18653 6.75 6.18653C6.33581 6.18653 6.00004 5.8507 6 5.43653V5.3711C5.99999 4.97579 5.99951 4.63448 6.02246 4.35352C6.04668 4.05711 6.1006 3.76223 6.24512 3.47852C6.46083 3.05515 6.80515 2.71083 7.22852 2.49512C7.51223 2.3506 7.80711 2.29669 8.10352 2.27246C8.38447 2.24952 8.72578 2.24999 9.12109 2.25H12.6289ZM8.46973 6.21973C8.76262 5.92684 9.23738 5.92684 9.53027 6.21973L11.7803 8.46973C12.0732 8.76262 12.0732 9.23738 11.7803 9.53028L9.53027 11.7803C9.23738 12.0732 8.76262 12.0732 8.46973 11.7803C8.17683 11.4874 8.17683 11.0126 8.46973 10.7197L9.43945 9.75H3C2.58579 9.75 2.25 9.41422 2.25 9C2.25 8.58579 2.58579 8.25 3 8.25H9.43945L8.46973 7.28028C8.17683 6.98738 8.17683 6.51262 8.46973 6.21973Z" fill="white"/>
</svg>
