<svg width="18" height="16" viewBox="0 0 18 16" fill="none" xmlns="http://www.w3.org/2000/svg">
<path d="M0 1.66663C0 1.40141 0.105357 1.14706 0.292893 0.959519C0.48043 0.771983 0.734784 0.666626 1 0.666626H15.6667C15.9319 0.666626 16.1862 0.771983 16.3738 0.959519C16.5613 1.14706 16.6667 1.40141 16.6667 1.66663C16.6667 1.93184 16.5613 2.1862 16.3738 2.37373C16.1862 2.56127 15.9319 2.66663 15.6667 2.66663H1C0.734784 2.66663 0.48043 2.56127 0.292893 2.37373C0.105357 2.1862 0 1.93184 0 1.66663ZM1 7.99996H15.6667C15.9319 7.99996 16.1862 7.8946 16.3738 7.70707C16.5613 7.51953 16.6667 7.26518 16.6667 6.99996C16.6667 6.73474 16.5613 6.48039 16.3738 6.29285C16.1862 6.10532 15.9319 5.99996 15.6667 5.99996H1C0.734784 5.99996 0.48043 6.10532 0.292893 6.29285C0.105357 6.48039 0 6.73474 0 6.99996C0 7.26518 0.105357 7.51953 0.292893 7.70707C0.48043 7.8946 0.734784 7.99996 1 7.99996ZM9.66667 11.3333H1C0.734784 11.3333 0.48043 11.4387 0.292893 11.6262C0.105357 11.8137 0 12.0681 0 12.3333C0 12.5985 0.105357 12.8529 0.292893 13.0404C0.48043 13.2279 0.734784 13.3333 1 13.3333H9.66667C9.93188 13.3333 10.1862 13.2279 10.3738 13.0404C10.5613 12.8529 10.6667 12.5985 10.6667 12.3333C10.6667 12.0681 10.5613 11.8137 10.3738 11.6262C10.1862 11.4387 9.93188 11.3333 9.66667 11.3333ZM17 11.3333H16V10.3333C16 10.0681 15.8946 9.81372 15.7071 9.62619C15.5196 9.43865 15.2652 9.33329 15 9.33329C14.7348 9.33329 14.4804 9.43865 14.2929 9.62619C14.1054 9.81372 14 10.0681 14 10.3333V11.3333H13C12.7348 11.3333 12.4804 11.4387 12.2929 11.6262C12.1054 11.8137 12 12.0681 12 12.3333C12 12.5985 12.1054 12.8529 12.2929 13.0404C12.4804 13.2279 12.7348 13.3333 13 13.3333H14V14.3333C14 14.5985 14.1054 14.8529 14.2929 15.0404C14.4804 15.2279 14.7348 15.3333 15 15.3333C15.2652 15.3333 15.5196 15.2279 15.7071 15.0404C15.8946 14.8529 16 14.5985 16 14.3333V13.3333H17C17.2652 13.3333 17.5196 13.2279 17.7071 13.0404C17.8946 12.8529 18 12.5985 18 12.3333C18 12.0681 17.8946 11.8137 17.7071 11.6262C17.5196 11.4387 17.2652 11.3333 17 11.3333Z" fill="#D7C6F3"/>
</svg>
