<svg width="18" height="16" viewBox="0 0 18 16" fill="none" xmlns="http://www.w3.org/2000/svg">
<path d="M0 1.6665C0 1.40129 0.105357 1.14693 0.292893 0.959397C0.48043 0.771861 0.734784 0.666504 1 0.666504H15.6667C15.9319 0.666504 16.1862 0.771861 16.3738 0.959397C16.5613 1.14693 16.6667 1.40129 16.6667 1.6665C16.6667 1.93172 16.5613 2.18607 16.3738 2.37361C16.1862 2.56115 15.9319 2.6665 15.6667 2.6665H1C0.734784 2.6665 0.48043 2.56115 0.292893 2.37361C0.105357 2.18607 0 1.93172 0 1.6665ZM1 7.99984H15.6667C15.9319 7.99984 16.1862 7.89448 16.3738 7.70694C16.5613 7.51941 16.6667 7.26505 16.6667 6.99984C16.6667 6.73462 16.5613 6.48027 16.3738 6.29273C16.1862 6.10519 15.9319 5.99984 15.6667 5.99984H1C0.734784 5.99984 0.48043 6.10519 0.292893 6.29273C0.105357 6.48027 0 6.73462 0 6.99984C0 7.26505 0.105357 7.51941 0.292893 7.70694C0.48043 7.89448 0.734784 7.99984 1 7.99984ZM9.66667 11.3332H1C0.734784 11.3332 0.48043 11.4385 0.292893 11.6261C0.105357 11.8136 0 12.068 0 12.3332C0 12.5984 0.105357 12.8527 0.292893 13.0403C0.48043 13.2278 0.734784 13.3332 1 13.3332H9.66667C9.93188 13.3332 10.1862 13.2278 10.3738 13.0403C10.5613 12.8527 10.6667 12.5984 10.6667 12.3332C10.6667 12.068 10.5613 11.8136 10.3738 11.6261C10.1862 11.4385 9.93188 11.3332 9.66667 11.3332ZM17 11.3332H16V10.3332C16 10.068 15.8946 9.8136 15.7071 9.62606C15.5196 9.43853 15.2652 9.33317 15 9.33317C14.7348 9.33317 14.4804 9.43853 14.2929 9.62606C14.1054 9.8136 14 10.068 14 10.3332V11.3332H13C12.7348 11.3332 12.4804 11.4385 12.2929 11.6261C12.1054 11.8136 12 12.068 12 12.3332C12 12.5984 12.1054 12.8527 12.2929 13.0403C12.4804 13.2278 12.7348 13.3332 13 13.3332H14V14.3332C14 14.5984 14.1054 14.8527 14.2929 15.0403C14.4804 15.2278 14.7348 15.3332 15 15.3332C15.2652 15.3332 15.5196 15.2278 15.7071 15.0403C15.8946 14.8527 16 14.5984 16 14.3332V13.3332H17C17.2652 13.3332 17.5196 13.2278 17.7071 13.0403C17.8946 12.8527 18 12.5984 18 12.3332C18 12.068 17.8946 11.8136 17.7071 11.6261C17.5196 11.4385 17.2652 11.3332 17 11.3332Z" fill="#67508E"/>
</svg>
