<svg width="14" height="15" viewBox="0 0 14 15" fill="none" xmlns="http://www.w3.org/2000/svg">
<path d="M5.64746 1.5625C5.56543 1.5625 5.51074 1.61719 5.45605 1.67188L4.93652 2.4375H8.90137L8.38184 1.67188C8.35449 1.61719 8.27246 1.5625 8.19043 1.5625H5.64746ZM10.4873 2.4375H10.8428H12.1826H12.4014C12.7568 2.4375 13.0576 2.73828 13.0576 3.09375C13.0576 3.47656 12.7568 3.75 12.4014 3.75H12.0732L11.417 12.6367C11.335 13.5664 10.5967 14.25 9.66699 14.25H4.1709C3.24121 14.25 2.50293 13.5664 2.4209 12.6367L1.76465 3.75H1.46387C1.08105 3.75 0.807617 3.47656 0.807617 3.09375C0.807617 2.73828 1.08105 2.4375 1.46387 2.4375H1.68262H2.99512H3.35059L4.3623 0.933594C4.63574 0.523438 5.12793 0.25 5.64746 0.25H8.19043C8.70996 0.25 9.20215 0.523438 9.47559 0.933594L10.4873 2.4375ZM10.7607 3.75H3.07715L3.7334 12.5547C3.76074 12.7734 3.95215 12.9375 4.1709 12.9375H9.66699C9.88574 12.9375 10.0771 12.7734 10.1045 12.5547L10.7607 3.75Z" fill="#252525"/>
</svg>
