<svg width="18" height="14" viewBox="0 0 18 14" fill="none" xmlns="http://www.w3.org/2000/svg">
<path d="M4.20836 7.8869C4.2104 7.92755 4.20414 7.96818 4.18998 8.00634C4.17581 8.04449 4.15403 8.07936 4.12597 8.10883C4.0979 8.1383 4.06413 8.16175 4.02672 8.17776C3.9893 8.19377 3.94902 8.20199 3.90832 8.20194H0.598911C0.463471 8.20215 0.331944 8.15653 0.225719 8.0725C0.119495 7.98848 0.04482 7.87098 0.0138381 7.73914C-0.00545358 7.64889 -0.00456424 7.5555 0.0164425 7.46563C0.0374492 7.37577 0.0780542 7.29166 0.135353 7.21932C0.664776 6.51722 1.36722 5.96441 2.17411 5.61487C1.81986 5.29188 1.54816 4.88871 1.38177 4.43913C1.21537 3.98954 1.15913 3.50663 1.21775 3.03084C1.27637 2.55504 1.44814 2.10022 1.71868 1.70447C1.98922 1.30871 2.35065 0.983547 2.7727 0.7562C3.19476 0.528853 3.66514 0.405947 4.14446 0.397775C4.62378 0.389603 5.09808 0.496402 5.52764 0.709229C5.95719 0.922056 6.3295 1.23471 6.61337 1.62102C6.89725 2.00732 7.08442 2.45602 7.15923 2.92953C7.16889 2.99321 7.15748 3.0583 7.12675 3.1149C7.09601 3.1715 7.04763 3.2165 6.98896 3.24307C6.15665 3.62786 5.45177 4.24268 4.95748 5.015C4.4632 5.78733 4.20015 6.68492 4.19936 7.60187C4.19936 7.69788 4.19936 7.79239 4.20836 7.8869ZM17.8601 7.21857C17.3319 6.51728 16.631 5.96477 15.8258 5.61487C16.1801 5.29188 16.4518 4.88871 16.6182 4.43913C16.7845 3.98954 16.8408 3.50663 16.7822 3.03084C16.7236 2.55504 16.5518 2.10022 16.2812 1.70447C16.0107 1.30871 15.6493 0.983547 15.2272 0.7562C14.8052 0.528853 14.3348 0.405947 13.8555 0.397775C13.3761 0.389603 12.9018 0.496402 12.4723 0.709229C12.0427 0.922056 11.6704 1.23471 11.3865 1.62102C11.1027 2.00732 10.9155 2.45602 10.8407 2.92953C10.831 2.99321 10.8424 3.0583 10.8732 3.1149C10.9039 3.1715 10.9523 3.2165 11.011 3.24307C11.8433 3.62786 12.5482 4.24268 13.0424 5.015C13.5367 5.78733 13.7998 6.68492 13.8006 7.60187C13.8006 7.69788 13.8006 7.79239 13.7916 7.8869C13.7895 7.92755 13.7958 7.96818 13.8099 8.00634C13.8241 8.04449 13.8459 8.07936 13.8739 8.10883C13.902 8.1383 13.9358 8.16175 13.9732 8.17776C14.0106 8.19377 14.0509 8.20199 14.0916 8.20194H17.401C17.5364 8.20215 17.668 8.15653 17.7742 8.0725C17.8804 7.98848 17.9551 7.87098 17.9861 7.73914C18.0055 7.64873 18.0046 7.55513 17.9834 7.46511C17.9623 7.37509 17.9214 7.29089 17.8638 7.21857H17.8601ZM11.1842 10.4575C11.7817 9.99989 12.2208 9.36659 12.4398 8.64657C12.6587 7.92655 12.6466 7.15602 12.405 6.44327C12.1634 5.73052 11.7046 5.11138 11.0929 4.67288C10.4813 4.23438 9.74766 3.99855 8.99508 3.99855C8.24251 3.99855 7.50885 4.23438 6.89722 4.67288C6.28559 5.11138 5.82675 5.73052 5.58517 6.44327C5.34359 7.15602 5.33143 7.92655 5.5504 8.64657C5.76937 9.36659 6.20845 9.99989 6.80593 10.4575C5.74571 10.9169 4.86039 11.7036 4.27962 12.7025C4.22695 12.7937 4.19922 12.8972 4.19923 13.0026C4.19923 13.1079 4.22697 13.2114 4.27965 13.3026C4.33234 13.3939 4.40811 13.4696 4.49935 13.5223C4.59059 13.5749 4.69409 13.6026 4.79943 13.6026H13.2005C13.3058 13.6026 13.4093 13.5749 13.5006 13.5223C13.5918 13.4696 13.6676 13.3939 13.7203 13.3026C13.7729 13.2114 13.8007 13.1079 13.8007 13.0026C13.8007 12.8972 13.773 12.7937 13.7203 12.7025C13.1383 11.7029 12.2513 10.9161 11.1895 10.4575H11.1842Z" fill="#67508E"/>
</svg>
