<svg width="18" height="14" viewBox="0 0 18 14" fill="none" xmlns="http://www.w3.org/2000/svg">
<path d="M4.20836 7.88693C4.2104 7.92758 4.20414 7.96821 4.18998 8.00637C4.17581 8.04452 4.15403 8.07939 4.12597 8.10886C4.0979 8.13833 4.06413 8.16178 4.02672 8.17779C3.9893 8.1938 3.94902 8.20202 3.90832 8.20197H0.598911C0.463471 8.20218 0.331944 8.15656 0.225719 8.07253C0.119495 7.98851 0.04482 7.87102 0.0138381 7.73917C-0.00545358 7.64892 -0.00456424 7.55553 0.0164425 7.46566C0.0374492 7.3758 0.0780542 7.29169 0.135353 7.21935C0.664776 6.51725 1.36722 5.96444 2.17411 5.6149C1.81986 5.29191 1.54816 4.88874 1.38177 4.43916C1.21537 3.98957 1.15913 3.50666 1.21775 3.03087C1.27637 2.55507 1.44814 2.10025 1.71868 1.7045C1.98922 1.30875 2.35065 0.983577 2.7727 0.756231C3.19476 0.528884 3.66514 0.405978 4.14446 0.397805C4.62378 0.389633 5.09808 0.496433 5.52764 0.70926C5.95719 0.922086 6.3295 1.23474 6.61337 1.62105C6.89725 2.00735 7.08442 2.45605 7.15923 2.92957C7.16889 2.99324 7.15748 3.05833 7.12675 3.11493C7.09601 3.17153 7.04763 3.21653 6.98896 3.2431C6.15665 3.62789 5.45177 4.24271 4.95748 5.01503C4.4632 5.78736 4.20015 6.68495 4.19936 7.6019C4.19936 7.69791 4.19936 7.79242 4.20836 7.88693ZM17.8601 7.2186C17.3319 6.51731 16.631 5.9648 15.8258 5.6149C16.1801 5.29191 16.4518 4.88874 16.6182 4.43916C16.7845 3.98957 16.8408 3.50666 16.7822 3.03087C16.7236 2.55507 16.5518 2.10025 16.2812 1.7045C16.0107 1.30875 15.6493 0.983577 15.2272 0.756231C14.8052 0.528884 14.3348 0.405978 13.8555 0.397805C13.3761 0.389633 12.9018 0.496433 12.4723 0.70926C12.0427 0.922086 11.6704 1.23474 11.3865 1.62105C11.1027 2.00735 10.9155 2.45605 10.8407 2.92957C10.831 2.99324 10.8424 3.05833 10.8732 3.11493C10.9039 3.17153 10.9523 3.21653 11.011 3.2431C11.8433 3.62789 12.5482 4.24271 13.0424 5.01503C13.5367 5.78736 13.7998 6.68495 13.8006 7.6019C13.8006 7.69791 13.8006 7.79242 13.7916 7.88693C13.7895 7.92758 13.7958 7.96821 13.8099 8.00637C13.8241 8.04452 13.8459 8.07939 13.8739 8.10886C13.902 8.13833 13.9358 8.16178 13.9732 8.17779C14.0106 8.1938 14.0509 8.20202 14.0916 8.20197H17.401C17.5364 8.20218 17.668 8.15656 17.7742 8.07253C17.8804 7.98851 17.9551 7.87102 17.9861 7.73917C18.0055 7.64876 18.0046 7.55516 17.9834 7.46514C17.9623 7.37512 17.9214 7.29092 17.8638 7.2186H17.8601ZM11.1842 10.4575C11.7817 9.99992 12.2208 9.36662 12.4398 8.6466C12.6587 7.92658 12.6466 7.15605 12.405 6.4433C12.1634 5.73055 11.7046 5.11141 11.0929 4.67291C10.4813 4.23441 9.74766 3.99858 8.99508 3.99858C8.24251 3.99858 7.50885 4.23441 6.89722 4.67291C6.28559 5.11141 5.82675 5.73055 5.58517 6.4433C5.34359 7.15605 5.33143 7.92658 5.5504 8.6466C5.76937 9.36662 6.20845 9.99992 6.80593 10.4575C5.74571 10.9169 4.86039 11.7036 4.27962 12.7025C4.22695 12.7938 4.19922 12.8973 4.19923 13.0026C4.19923 13.108 4.22697 13.2114 4.27965 13.3027C4.33234 13.3939 4.40811 13.4696 4.49935 13.5223C4.59059 13.575 4.69409 13.6027 4.79943 13.6026H13.2005C13.3058 13.6027 13.4093 13.575 13.5006 13.5223C13.5918 13.4696 13.6676 13.3939 13.7203 13.3027C13.7729 13.2114 13.8007 13.108 13.8007 13.0026C13.8007 12.8973 13.773 12.7938 13.7203 12.7025C13.1383 11.703 12.2513 10.9162 11.1895 10.4575H11.1842Z" fill="#D7C6F3"/>
</svg>
