<svg width="18" height="16" viewBox="0 0 18 16" fill="none" xmlns="http://www.w3.org/2000/svg">
<path d="M0 1.66669C0 1.40147 0.105357 1.14712 0.292893 0.95958C0.48043 0.772044 0.734784 0.666687 1 0.666687H15.6667C15.9319 0.666687 16.1862 0.772044 16.3738 0.95958C16.5613 1.14712 16.6667 1.40147 16.6667 1.66669C16.6667 1.9319 16.5613 2.18626 16.3738 2.37379C16.1862 2.56133 15.9319 2.66669 15.6667 2.66669H1C0.734784 2.66669 0.48043 2.56133 0.292893 2.37379C0.105357 2.18626 0 1.9319 0 1.66669ZM1 8.00002H15.6667C15.9319 8.00002 16.1862 7.89466 16.3738 7.70713C16.5613 7.51959 16.6667 7.26524 16.6667 7.00002C16.6667 6.7348 16.5613 6.48045 16.3738 6.29291C16.1862 6.10538 15.9319 6.00002 15.6667 6.00002H1C0.734784 6.00002 0.48043 6.10538 0.292893 6.29291C0.105357 6.48045 0 6.7348 0 7.00002C0 7.26524 0.105357 7.51959 0.292893 7.70713C0.48043 7.89466 0.734784 8.00002 1 8.00002ZM9.66667 11.3334H1C0.734784 11.3334 0.48043 11.4387 0.292893 11.6262C0.105357 11.8138 0 12.0681 0 12.3334C0 12.5986 0.105357 12.8529 0.292893 13.0405C0.48043 13.228 0.734784 13.3334 1 13.3334H9.66667C9.93188 13.3334 10.1862 13.228 10.3738 13.0405C10.5613 12.8529 10.6667 12.5986 10.6667 12.3334C10.6667 12.0681 10.5613 11.8138 10.3738 11.6262C10.1862 11.4387 9.93188 11.3334 9.66667 11.3334ZM17 11.3334H16V10.3334C16 10.0681 15.8946 9.81378 15.7071 9.62625C15.5196 9.43871 15.2652 9.33335 15 9.33335C14.7348 9.33335 14.4804 9.43871 14.2929 9.62625C14.1054 9.81378 14 10.0681 14 10.3334V11.3334H13C12.7348 11.3334 12.4804 11.4387 12.2929 11.6262C12.1054 11.8138 12 12.0681 12 12.3334C12 12.5986 12.1054 12.8529 12.2929 13.0405C12.4804 13.228 12.7348 13.3334 13 13.3334H14V14.3334C14 14.5986 14.1054 14.8529 14.2929 15.0405C14.4804 15.228 14.7348 15.3334 15 15.3334C15.2652 15.3334 15.5196 15.228 15.7071 15.0405C15.8946 14.8529 16 14.5986 16 14.3334V13.3334H17C17.2652 13.3334 17.5196 13.228 17.7071 13.0405C17.8946 12.8529 18 12.5986 18 12.3334C18 12.0681 17.8946 11.8138 17.7071 11.6262C17.5196 11.4387 17.2652 11.3334 17 11.3334Z" fill="#D7C6F3"/>
</svg>
