<svg width="18" height="18" viewBox="0 0 18 18" fill="none" xmlns="http://www.w3.org/2000/svg">
<path d="M17.8609 16.8926C17.9383 16.9955 17.9855 17.1179 17.9971 17.2461C18.0088 17.3742 17.9845 17.5031 17.927 17.6183C17.8695 17.7334 17.781 17.8302 17.6715 17.8979C17.562 17.9655 17.4358 18.0013 17.3071 18.0012H0.692283C0.563718 18.0012 0.437693 17.9654 0.328328 17.8978C0.218964 17.8302 0.130583 17.7335 0.0730865 17.6185C0.0155904 17.5035 -0.00874824 17.3748 0.00279763 17.2467C0.0143435 17.1187 0.0613178 16.9964 0.138457 16.8935C0.75146 16.0716 1.56891 15.4246 2.50953 15.0166C1.99393 14.546 1.63266 13.9305 1.47313 13.2509C1.31361 12.5713 1.36329 11.8594 1.61564 11.2086C1.868 10.5577 2.31124 9.99837 2.88719 9.60396C3.46315 9.20954 4.14489 8.99848 4.84295 8.99848C5.54101 8.99848 6.22275 9.20954 6.79871 9.60396C7.37466 9.99837 7.8179 10.5577 8.07026 11.2086C8.32261 11.8594 8.37229 12.5713 8.21277 13.2509C8.05324 13.9305 7.69197 14.546 7.17638 15.0166C7.855 15.3099 8.47169 15.7295 8.99362 16.2531C9.51554 15.7295 10.1322 15.3099 10.8109 15.0166C10.2953 14.546 9.93399 13.9305 9.77447 13.2509C9.61494 12.5713 9.66462 11.8594 9.91698 11.2086C10.1693 10.5577 10.6126 9.99837 11.1885 9.60396C11.7645 9.20954 12.4462 8.99848 13.1443 8.99848C13.8423 8.99848 14.5241 9.20954 15.1 9.60396C15.676 9.99837 16.1192 10.5577 16.3716 11.2086C16.6239 11.8594 16.6736 12.5713 16.5141 13.2509C16.3546 13.9305 15.9933 14.546 15.4777 15.0166C16.4227 15.4224 17.2445 16.0694 17.8609 16.8926ZM0.276913 8.86303C0.349643 8.91758 0.432404 8.95726 0.520472 8.97983C0.608539 9.00239 0.700188 9.00739 0.790187 8.99453C0.880185 8.98167 0.966769 8.95121 1.045 8.9049C1.12322 8.85858 1.19156 8.7973 1.24611 8.72457C1.66526 8.16571 2.20876 7.71211 2.83359 7.3997C3.45842 7.08729 4.1474 6.92464 4.84598 6.92464C5.54456 6.92464 6.23354 7.08729 6.85837 7.3997C7.48319 7.71211 8.0267 8.16571 8.44585 8.72457C8.51033 8.81055 8.59395 8.88034 8.69008 8.9284C8.7862 8.97646 8.8922 9.00149 8.99967 9.00149C9.10715 9.00149 9.21315 8.97646 9.30927 8.9284C9.4054 8.88034 9.48902 8.81055 9.5535 8.72457C9.97265 8.16571 10.5162 7.71211 11.141 7.3997C11.7658 7.08729 12.4548 6.92464 13.1534 6.92464C13.8519 6.92464 14.5409 7.08729 15.1658 7.3997C15.7906 7.71211 16.3341 8.16571 16.7532 8.72457C16.8078 8.7973 16.8762 8.85857 16.9545 8.90486C17.0328 8.95116 17.1194 8.98159 17.2095 8.9944C17.2995 9.00722 17.3912 9.00218 17.4793 8.97956C17.5674 8.95695 17.6501 8.9172 17.7229 8.8626C17.7956 8.80799 17.8569 8.7396 17.9032 8.66132C17.9495 8.58304 17.9799 8.49641 17.9927 8.40637C18.0055 8.31633 18.0005 8.22465 17.9779 8.13656C17.9552 8.04847 17.9155 7.9657 17.8609 7.89297C17.2479 7.07134 16.4304 6.42453 15.4898 6.01688C16.0054 5.54631 16.3667 4.93083 16.5262 4.25125C16.6857 3.57166 16.6361 2.85972 16.3837 2.20888C16.1314 1.55803 15.6881 0.998695 15.1122 0.604282C14.5362 0.209868 13.8545 -0.00119019 13.1564 -0.00119019C12.4583 -0.00119019 11.7766 0.209868 11.2006 0.604282C10.6247 0.998695 10.1814 1.55803 9.92909 2.20888C9.67673 2.85972 9.62706 3.57166 9.78658 4.25125C9.94611 4.93083 10.3074 5.54631 10.823 6.01688C10.1443 6.31022 9.52766 6.72986 9.00573 7.25347C8.48381 6.72986 7.86712 6.31022 7.18849 6.01688C7.70409 5.54631 8.06536 4.93083 8.22488 4.25125C8.38441 3.57166 8.33473 2.85972 8.08237 2.20888C7.83002 1.55803 7.38677 0.998695 6.81082 0.604282C6.23487 0.209868 5.55312 -0.00119019 4.85507 -0.00119019C4.15701 -0.00119019 3.47526 0.209868 2.89931 0.604282C2.32336 0.998695 1.88011 1.55803 1.62776 2.20888C1.3754 2.85972 1.32572 3.57166 1.48525 4.25125C1.64477 4.93083 2.00604 5.54631 2.52164 6.01688C1.57661 6.42308 0.754807 7.07031 0.138457 7.89383C0.0839098 7.96656 0.0442218 8.04932 0.0216592 8.13739C-0.000903359 8.22546 -0.00589875 8.31711 0.00695812 8.40711C0.019815 8.49711 0.0502725 8.58369 0.0965915 8.66192C0.142911 8.74014 0.204184 8.80848 0.276913 8.86303Z" fill="#D7C6F3"/>
</svg>
